<svg xmlns="http://www.w3.org/2000/svg" viewBox="0 0 285.46 16.04"><title>Artboard 18</title><g id="HEADER"><rect x="16.04" y="8.02" width="251.2" height="1.56" style="fill:#c3996c"/><path d="M269.78,2.38H15.68S3.07,2.37,3.07,9.65c0,3,1.41,4,3.43,4a2.69,2.69,0,0,0,2.79-2.79A2.45,2.45,0,0,0,6.77,8.34C6.77,6.57,9.51,3.89,19,3.89H266.51c9.43,0,12.17,2.68,12.17,4.45a2.44,2.44,0,0,0-2.51,2.53A2.69,2.69,0,0,0,279,13.66c2,0,3.42-1,3.42-4C282.38,2.37,269.78,2.38,269.78,2.38Z" style="fill:#c3996c"/><circle cx="120.84" cy="6.24" r="0.62" style="fill:#c3996c"/><circle cx="108.43" cy="6.24" r="0.62" style="fill:#c3996c"/><circle cx="96.03" cy="6.24" r="0.62" style="fill:#c3996c"/><circle cx="83.62" cy="6.24" r="0.62" style="fill:#c3996c"/><circle cx="71.22" cy="6.24" r="0.62" style="fill:#c3996c"/><circle cx="58.81" cy="6.24" r="0.62" style="fill:#c3996c"/><circle cx="46.4" cy="6.24" r="0.62" style="fill:#c3996c"/><circle cx="34" cy="6.24" r="0.62" style="fill:#c3996c"/><circle cx="21.59" cy="6.24" r="0.62" style="fill:#c3996c"/><circle cx="260.14" cy="6.24" r="0.62" style="fill:#c3996c"/><circle cx="246.12" cy="6.24" r="0.62" style="fill:#c3996c"/><circle cx="232.1" cy="6.24" r="0.62" style="fill:#c3996c"/><circle cx="218.08" cy="6.24" r="0.62" style="fill:#c3996c"/><circle cx="204.06" cy="6.24" r="0.62" style="fill:#c3996c"/><circle cx="190.03" cy="6.24" r="0.62" style="fill:#c3996c"/><circle cx="176.01" cy="6.24" r="0.62" style="fill:#c3996c"/><circle cx="161.99" cy="6.24" r="0.62" style="fill:#c3996c"/><circle cx="147.97" cy="6.24" r="0.62" style="fill:#c3996c"/></g></svg>