<svg xmlns="http://www.w3.org/2000/svg" viewBox="0 0 671.59 44.94"><title>Artboard 16 copy</title><g id="HEADER"><path d="M666.09,17.83c-.72.61-.89,1.44-2.72,1.44H523l2.55,2.82H664.09s4.32.28,4.32-2.16S666.81,17.22,666.09,17.83Z" style="fill:#c3996c"/><path d="M617.16,16.56h9.27a29.66,29.66,0,0,0,4.41-.33c4-.62,11.76-2.27,15.79-6.19C652.24,4.57,643.23,4,641,4s-6.65.08-7,2.59-3,7.16-6.35,7.16H518l2.55,2.83Z" style="fill:#c3996c"/><path d="M516.8,22.09s-.17-9.43-13.63-9.43c-15,0-25.75,22.89-51.67,22.89-11.46,0-19.14-2.81-24.16-5.95,6.18,2.13,17.47,4.82,28.37,1.19,19.28-6.43,17.9-14.58,29.64-15.58,0,0-1-4.63-9.41-4.63-6.45,0-13,8.58-19.68,14-6.41,5.23-19.11,7.06-35.51-.72a17,17,0,0,1-1.28-1.78h34.25l2.54-2.82H420.82a12.28,12.28,0,0,1,7.73-2.71h30.16l2.54-2.83H414.51s-4.21.44-4.21,3.95S427.5,38.17,451,38.17s47.55-16.08,59.37-16.08Z" style="fill:#c3996c"/><path d="M528.19,27.13a85.17,85.17,0,0,1-11,1.92,26.15,26.15,0,0,1-3.31.21H495.5L498,32.08h23.58A26.64,26.64,0,0,1,541.14,41a8.11,8.11,0,0,0,1-4.19C542.11,25,531.81,26,528.19,27.13Z" style="fill:#c3996c"/><path d="M5.5,17.83c.72.61.88,1.44,2.71,1.44h140.4l-2.54,2.82H7.49s-4.32.28-4.32-2.16S4.78,17.22,5.5,17.83Z" style="fill:#c3996c"/><path d="M54.42,16.56H45.16a29.56,29.56,0,0,1-4.41-.33C36.71,15.61,29,14,25,10,19.34,4.57,28.35,4,30.57,4s6.65.08,7,2.59,3,7.16,6.36,7.16H153.6l-2.54,2.83Z" style="fill:#c3996c"/><path d="M154.78,22.09s.18-9.43,13.64-9.43c15,0,25.74,22.89,51.66,22.89,11.46,0,19.15-2.81,24.17-5.95-6.18,2.13-17.47,4.82-28.38,1.19C196.6,24.36,198,16.21,186.23,15.21c0,0,1-4.63,9.41-4.63,6.45,0,13,8.58,19.68,14,6.41,5.23,19.11,7.06,35.52-.72a17,17,0,0,0,1.28-1.78H217.87l-2.55-2.82h35.45A12.31,12.31,0,0,0,243,16.56H212.88l-2.54-2.83h46.74s4.21.44,4.21,3.95S244.08,38.17,220.6,38.17,173,22.09,161.23,22.09Z" style="fill:#c3996c"/><path d="M143.39,27.13a85.78,85.78,0,0,0,11,1.92,26.15,26.15,0,0,0,3.31.21h18.44l-2.55,2.82H150A26.65,26.65,0,0,0,130.44,41a8.11,8.11,0,0,1-1-4.19C129.47,25,139.77,26,143.39,27.13Z" style="fill:#c3996c"/></g></svg>