<?xml version="1.0" standalone="no"?>
<!DOCTYPE svg PUBLIC "-//W3C//DTD SVG 1.1//EN" "http://www.w3.org/Graphics/SVG/1.1/DTD/svg11.dtd" >
<svg xmlns="http://www.w3.org/2000/svg" xmlns:xlink="http://www.w3.org/1999/xlink" version="1.1">
<metadata>
Created by FontForge 20161003 at Thu Apr 18 11:17:15 2019
 By www-data
Copyright (c) 2017 by David Einwaller. All rights reserved.
</metadata>
<defs>
<font id="MorionBold" horiz-adv-x="0" >
  <font-face 
    font-family="MorionBold"
    font-weight="400"
    font-stretch="normal"
    units-per-em="1000"
    panose-1="0 0 0 0 0 0 0 0 0 0"
    ascent="750"
    descent="-250"
    x-height="460"
    cap-height="735"
    bbox="-714 -280 1162 1222"
    underline-thickness="50"
    underline-position="-150"
    unicode-range="U+0020-2265"
  />
<missing-glyph horiz-adv-x="370" 
 />
    <glyph glyph-name="f_b" unicode="fb" horiz-adv-x="947" 
d="M670 474q105 0 170.5 -66t65.5 -172q0 -114 -64.5 -182t-173.5 -68q-95 0 -133 48v-34h-167v11l50 75v525q0 53 -23 81.5t-65 28.5q-97 0 -97 -125v-136h117v-34h-117v-340l55 -75v-11h-227v11l52 75v340h-63v34h64v68q0 67 17.5 112.5t50 68t67 31.5t78.5 9
q128 0 211 -43v-273q57 41 132 41zM639 38q68 0 105.5 50t37.5 142q0 86 -38.5 136.5t-104.5 50.5q-69 0 -105 -47v-292q40 -40 105 -40z" />
    <glyph glyph-name="f_h" unicode="fh" horiz-adv-x="932" 
d="M848 86l48 -75v-11h-212v11l44 75v214q0 120 -93 120q-44 0 -70.5 -29.5t-26.5 -78.5v-226l44 -75v-11h-208v11l44 75v525q0 53 -23 81.5t-65 28.5q-97 0 -97 -125v-136h117v-34h-117v-340l55 -75v-11h-227v11l52 75v340h-63v34h64v68q0 67 17.5 112.5t50 68t67 31.5
t78.5 9q128 0 211 -43v-302q23 35 61.5 52.5t75.5 17.5q82 0 127.5 -42.5t45.5 -119.5v-226z" />
    <glyph glyph-name="f_j" unicode="fj" horiz-adv-x="574" 
d="M339 -210v20q22 5 37 17t22 24.5t10.5 32t3 32.5t-1.5 34.5t-1 29.5v299q0 97 -21 122t-98 25h-57v-340l55 -75v-11h-227v11l52 75v340h-63v34h64v68q0 67 17.5 112.5t50 68t67 31.5t78.5 9q85 0 138.5 -34t64.5 -93l-73 -84l-78 79q12 17 12 42q0 29 -19.5 45.5
t-51.5 16.5q-46 0 -66.5 -30.5t-20.5 -94.5v-136h296v-483q0 -70 -47 -128.5t-143 -58.5z" />
    <glyph glyph-name="fi.liga" unicode="fi" horiz-adv-x="613" 
d="M61 0v11l52 75v341h-63v33h64v68q0 67 17.5 112.5t50 68t67 31.5t78.5 9q85 0 138.5 -34t64.5 -93l-73 -84l-78 79q12 13 12 37q0 31 -19.5 49t-51.5 18q-46 0 -66.5 -30.5t-20.5 -94.5v-136h296v-374l50 -75v-11h-220v11l50 75v193q0 97 -21 122.5t-98 25.5h-57v-341
l55 -75v-11h-227z" />
    <glyph glyph-name="fl.liga" unicode="fl" horiz-adv-x="622" 
d="M538 86l50 -75v-11h-220v11l50 75v525q0 53 -23 81.5t-65 28.5q-97 0 -97 -125v-136h117v-33h-117v-341l55 -75v-11h-227v11l52 75v341h-63v33h64v68q0 67 18.5 112.5t51.5 68t68.5 31.5t81.5 9q55 0 112 -12t92 -31v-620z" />
    <glyph glyph-name="ff.liga" unicode="ff" horiz-adv-x="691" 
d="M688 600h-14q15 53 -1 87t-56 34q-76 0 -76 -125v-136h134v-34h-134v-340l55 -75v-11h-227v11l52 75v340h-188v-340l55 -75v-11h-227v11l52 75v340h-63v34h64v68q0 221 196 221q95 0 138 -49l-62 -87h-23q14 47 -1 77.5t-53 30.5q-76 0 -76 -125v-136h189v68
q0 221 196 221q119 0 168 -74z" />
    <glyph glyph-name="ffi.liga" unicode="ffi" horiz-adv-x="922" 
d="M838 86l50 -75v-11h-220v11l50 75v193q0 97 -21 122t-98 25h-57v-340l55 -75v-11h-227v11l52 75v340h-189v-340l55 -75v-11h-227v11l52 75v340h-63v34h64v68q0 221 196 221q95 0 138 -49l-62 -87h-23q14 47 -1 77.5t-53 30.5q-76 0 -76 -125v-136h190v68q0 67 17.5 112.5
t50 68t67 31.5t78.5 9q80 0 136.5 -35.5t66.5 -91.5l-73 -84l-78 79q12 15 12 41q0 30 -19.5 46.5t-51.5 16.5q-46 0 -66.5 -30.5t-20.5 -94.5v-136h296v-374z" />
    <glyph glyph-name="ffl.liga" unicode="ffl" horiz-adv-x="936" 
d="M852 86l50 -75v-11h-220v11l50 75v525q0 53 -23 81.5t-65 28.5q-97 0 -97 -125v-136h117v-34h-117v-340l55 -75v-11h-227v11l52 75v340h-194v-340l55 -75v-11h-227v11l52 75v340h-63v34h64v68q0 221 196 221q95 0 138 -49l-62 -87h-23q14 47 -1 77.5t-53 30.5
q-76 0 -76 -125v-136h195v68q0 67 18.5 112.5t51.5 68t68.5 31.5t81.5 9q55 0 112 -12t92 -31v-620z" />
    <glyph glyph-name=".notdef" horiz-adv-x="370" 
 />
    <glyph glyph-name=".null" 
 />
    <glyph glyph-name="nonmarkingreturn" horiz-adv-x="333" 
 />
    <glyph glyph-name="space" unicode=" " horiz-adv-x="270" 
 />
    <glyph glyph-name="exclam" unicode="!" horiz-adv-x="268" 
d="M97 187q0 262 -53 493l90 82l89 -82q-55 -272 -55 -493h-71zM133 -34l-81 85l81 85l80 -85z" />
    <glyph glyph-name="quotedbl" unicode="&#x22;" horiz-adv-x="362" 
d="M82 474q0 126 -66 207l80 84l80 -84q-66 -81 -66 -207h-28zM255 474q0 126 -66 207l80 84l80 -84q-66 -81 -66 -207h-28z" />
    <glyph glyph-name="numbersign" unicode="#" horiz-adv-x="636" 
d="M134 -17v245h-114v35h121l53 151h-132v36h146l80 234h8v-234h103l81 234h7v-234h129v-36h-133l-55 -151h141v-35h-152l-85 -245h-7v245h-103l-81 -245h-7zM232 263h100l56 151h-100z" />
    <glyph glyph-name="dollar" unicode="$" horiz-adv-x="599" 
d="M561 198q0 -89 -67 -146.5t-177 -64.5v-100h-62v101q-77 7 -126 36l-63 -24h-14v194h32q13 -69 58.5 -113t112.5 -54v303q-46 19 -74 35t-60 42t-47.5 63t-15.5 85q0 61 30.5 104.5t72.5 62.5t94 25v112h62v-111q163 -7 211 -122l-110 -74h-15q6 22 6 50q0 95 -92 109
v-261q105 -44 137 -64q107 -67 107 -188zM165 610q0 -81 90 -131v231q-44 -7 -67 -33.5t-23 -66.5zM317 25q64 6 100 38.5t36 84.5q0 57 -35 91.5t-101 64.5v-279z" />
    <glyph glyph-name="percent" unicode="%" horiz-adv-x="724" 
d="M191 454q-50 0 -94.5 33t-44.5 104t44.5 104t94.5 33q52 0 96.5 -33t44.5 -104t-44.5 -104t-96.5 -33zM79 0l481 716h74l-481 -716h-74zM191 483q46 0 46 107q0 108 -46 108q-20 0 -32 -28t-11 -80q-1 -52 11 -79.5t32 -27.5zM531 -8q-50 0 -94.5 33t-44.5 104t44.5 104
t94.5 33q52 0 96.5 -33t44.5 -104t-44.5 -104t-96.5 -33zM531 21q46 0 46 107q0 108 -46 108q-20 0 -32 -28t-11 -80q-1 -52 11 -79.5t32 -27.5z" />
    <glyph glyph-name="ampersand" unicode="&#x26;" horiz-adv-x="715" 
d="M667 96h22q-15 -55 -48.5 -82.5t-75.5 -27.5q-58 0 -104 49q-77 -49 -168 -49q-125 0 -198.5 55t-73.5 149q0 42 12.5 75t39 58t50 40t62.5 35q-52 67 -75 112.5t-23 92.5q0 65 55 105.5t143 40.5q87 0 141 -42t54 -109q0 -27 -5.5 -49.5t-21.5 -42.5t-26 -31.5
t-38 -28.5t-38 -22.5t-44 -23.5l198 -261q1 -1 2.5 -3.5t2.5 -3.5q45 54 72 126l-76 82v12h152q-39 -158 -123 -253q40 -47 69 -47q32 0 63 44zM197 619q0 -39 17 -77.5t58 -94.5q95 62 95 163q0 52 -23.5 82t-63.5 30q-39 0 -61 -27.5t-22 -75.5zM146 197q0 -73 43 -116.5
t116 -43.5q70 0 128 32l-210 280q-77 -58 -77 -152z" />
    <glyph glyph-name="quotesingle" unicode="'" horiz-adv-x="184" 
d="M69 474q2 19 3.5 31.5t2 35.5t-3 40.5t-9.5 37.5t-19.5 35.5t-32.5 26.5l80 84l80 -85l-78 -206h-23z" />
    <glyph glyph-name="parenleft" unicode="(" horiz-adv-x="340" 
d="M304 -101q-116 62 -187 188.5t-71 260.5t70.5 259.5t186.5 189.5l30 -49q-75 -50 -116 -165t-41.5 -238t39.5 -238t115 -164z" />
    <glyph glyph-name="parenright" unicode=")" horiz-adv-x="340" 
d="M35 -101l-26 44q75 49 116 164t40 238t-42.5 238t-116.5 165l30 49q116 -64 186.5 -189.5t70.5 -259.5t-71 -260.5t-187 -188.5z" />
    <glyph glyph-name="asterisk" unicode="*" horiz-adv-x="373" 
d="M168 400l-14 109l-103 -41l-19 32l88 67l-88 68l19 32l103 -41l14 109h38l14 -109l103 41l18 -32l-87 -68l87 -67l-18 -32l-103 41l-14 -109h-38z" />
    <glyph glyph-name="plus" unicode="+" horiz-adv-x="470" 
d="M420 303v-60h-152v-157h-66v157h-152v60h152v157h66v-157h152z" />
    <glyph glyph-name="comma" unicode="," horiz-adv-x="243" 
d="M104 -155q2 19 3.5 31.5t2 35.5t-3 40.5t-9.5 37.5t-19.5 35.5t-32.5 26.5l80 84l80 -85l-78 -206h-23z" />
    <glyph glyph-name="hyphen" unicode="-" horiz-adv-x="418" 
d="M61 244v60h295v-60h-295z" />
    <glyph glyph-name="period" unicode="." horiz-adv-x="249" 
d="M125 -34l-81 85l81 85l80 -85z" />
    <glyph glyph-name="slash" unicode="/" horiz-adv-x="530" 
d="M20 -57l379 854h110l-379 -854h-110z" />
    <glyph glyph-name="zero" unicode="0" horiz-adv-x="750" 
d="M375 -15q-103 0 -178.5 55t-111 140.5t-35.5 186.5q0 102 35.5 187t111 140t178.5 55t178.5 -55t111 -140.5t35.5 -186.5t-35.5 -186.5t-111 -140.5t-178.5 -55zM396 18q78 0 119.5 83.5t41.5 237.5q0 172 -55.5 275t-144.5 103q-80 0 -122 -80.5t-42 -228.5
q0 -178 56 -284t147 -106z" />
    <glyph glyph-name="one" unicode="1" horiz-adv-x="404" 
d="M75 0v11l62 83v536h-107v12l237 107v-655l57 -83v-11h-249z" />
    <glyph glyph-name="two" unicode="2" horiz-adv-x="574" 
d="M63 0l-25 56q81 76 132 130t103.5 123t78 137.5t25.5 138.5q0 131 -98 131q-39 0 -63 -24t-24 -64q0 -60 44 -82l-88 -86q-79 57 -79 137q0 68 60.5 110t157.5 42q105 0 165 -43t60 -119q0 -54 -21.5 -107.5t-71.5 -115.5t-107 -119t-152 -144h342l42 -90v-11h-481z" />
    <glyph glyph-name="three" unicode="3" horiz-adv-x="615" 
d="M305 -14q-97 0 -168.5 34t-100.5 93l146 86q-3 -7 -3 -33q0 -67 34.5 -108.5t88.5 -41.5q62 0 96.5 47t34.5 130q0 186 -219 186v27q85 7 130 57t45 134q0 56 -25.5 88.5t-69.5 32.5q-38 0 -62 -24t-24 -64q0 -30 18 -58l-112 -76q-34 46 -34 98q0 55 36 91.5t82 50
t98 13.5q58 0 106.5 -15t83 -53.5t34.5 -94.5q0 -73 -53 -122.5t-126 -61.5q102 -1 165 -53.5t63 -149.5q0 -95 -73 -154t-191 -59z" />
    <glyph glyph-name="four" unicode="4" horiz-adv-x="611" 
d="M273 0v7l53 88v110h-298v27l330 527l98 -59v-438h137v-57h-137v-110l52 -88v-7h-235zM101 262h225v354z" />
    <glyph glyph-name="five" unicode="5" horiz-adv-x="621" 
d="M291 -14q-98 0 -173 38t-95 98l142 72q0 -81 34.5 -127t95.5 -46q73 0 110 59.5t37 142.5q0 94 -41.5 147t-115.5 53q-83 0 -143 -71l-57 35l45 348h362l21 -100h-349l-28 -213q23 23 68 37.5t99 14.5q124 0 196 -63t72 -173q0 -115 -76 -183.5t-204 -68.5z" />
    <glyph glyph-name="six" unicode="6" horiz-adv-x="667" 
d="M374 481q112 0 182.5 -60.5t70.5 -171.5q0 -119 -74.5 -191t-194.5 -72q-101 0 -172 53.5t-103.5 139.5t-32.5 196q0 74 21.5 141t62 119.5t104 83t141.5 30.5q144 0 206 -79l-120 -76q-13 56 -35.5 90.5t-66.5 34.5q-75 0 -120.5 -86t-50.5 -235q69 83 182 83zM359 25
q72 0 104 60.5t32 138.5q0 96 -40 150t-113 54q-102 0 -149 -93q5 -144 49 -227t117 -83z" />
    <glyph glyph-name="seven" unicode="7" horiz-adv-x="514" 
d="M101 0q0 83 151 345l169 290h-314l-80 -71h-17l43 171h441l4 -76l-153 -269q-96 -169 -98 -390h-146z" />
    <glyph glyph-name="eight" unicode="8" horiz-adv-x="614" 
d="M383 425q42 -17 70 -32.5t57 -41t43.5 -63t14.5 -85.5q0 -100 -69.5 -159t-188.5 -59q-122 0 -193 52.5t-71 142.5q0 69 42.5 115.5t114.5 81.5q-61 32 -94.5 75t-33.5 113q0 93 66 138t163 45q59 0 108 -15t84.5 -55t35.5 -100q0 -29 -13 -54t-37.5 -43.5t-46.5 -30.5
t-52 -25zM290 717q-50 0 -81 -32t-31 -84q0 -60 39 -93t115 -63q76 47 76 141q0 58 -32 94.5t-86 36.5zM312 18q65 0 105 41t40 106q0 21 -5.5 40t-12.5 32.5t-23 28t-26.5 22.5t-33.5 19.5l-34 17t-39 17t-38 15.5q-36 -26 -57 -72.5t-21 -102.5q0 -76 39 -120t106 -44z
" />
    <glyph glyph-name="nine" unicode="9" horiz-adv-x="630" 
d="M297 748q72 0 127.5 -27t89 -73.5t50 -105t16.5 -126.5q0 -195 -78 -312.5t-204 -117.5q-76 0 -137.5 25.5t-97.5 72.5l122 97q1 -55 31.5 -108.5t81.5 -53.5q70 0 111 96t44 267q-66 -74 -173 -74q-103 0 -171 61.5t-68 154.5q0 100 70.5 162t185.5 62zM308 363
q46 0 84 22t60 61q-4 138 -42 202t-115 64q-64 0 -100.5 -45t-36.5 -124q0 -81 41.5 -130.5t108.5 -49.5z" />
    <glyph glyph-name="colon" unicode=":" horiz-adv-x="262" 
d="M129 266l-81 85l81 85l80 -85zM129 -34l-81 85l81 85l80 -85z" />
    <glyph glyph-name="semicolon" unicode=";" horiz-adv-x="265" 
d="M125 266l-81 85l81 85l80 -85zM104 -155q2 19 3.5 31.5t2 35.5t-3 40.5t-9.5 37.5t-19.5 35.5t-32.5 26.5l80 84l80 -85l-78 -206h-23z" />
    <glyph glyph-name="less" unicode="&#x3c;" horiz-adv-x="440" 
d="M383 33l-326 226v17l326 226v-93l-158 -142l158 -135v-99z" />
    <glyph glyph-name="equal" unicode="=" horiz-adv-x="408" 
d="M74 308v48h244v-48h-244zM74 210v48h244v-48h-244z" />
    <glyph glyph-name="greater" unicode="&#x3e;" horiz-adv-x="440" 
d="M57 33v99l159 135l-159 142v93l326 -226v-17z" />
    <glyph glyph-name="question" unicode="?" horiz-adv-x="523" 
d="M195 187q0 65 16 116.5t39.5 84.5t46.5 62t39 64.5t16 76.5q0 58 -27 91t-76 33q-46 0 -73 -27t-27 -75q0 -49 35 -74l-61 -109q-87 50 -87 152q0 78 60.5 122t153.5 44q107 0 171 -45.5t64 -122.5q0 -44 -22 -83.5t-53 -72t-62 -65.5t-53 -77.5t-22 -94.5h-78zM234 -34
l-81 85l81 85l80 -85z" />
    <glyph glyph-name="at" unicode="@" horiz-adv-x="870" 
d="M466 -124q-168 0 -287 104.5t-119 264.5t117.5 269.5t275.5 109.5q160 0 258.5 -83t98.5 -218q0 -118 -56.5 -186.5t-150.5 -68.5q-67 0 -97 26q-38 -26 -103 -26q-66 0 -113 42t-47 109q0 86 62 147t147 61q67 0 107 -35l60 27l13 -1l-39 -257q-5 -37 24 -37
q34 0 54.5 50.5t20.5 132.5q0 123 -63.5 193.5t-175.5 70.5q-82 0 -143.5 -49.5t-90.5 -122t-29 -154.5q0 -132 71 -223t205 -91q183 0 278 134l34 -27q-49 -76 -132.5 -119t-179.5 -43zM427 119q39 0 69 28l36 217q-24 26 -66 26q-50 0 -82 -46t-32 -116q0 -49 20.5 -79
t54.5 -30z" />
    <glyph glyph-name="A" unicode="A" horiz-adv-x="678" 
d="M614 93l56 -84v-9h-242v9l49 84l-68 165h-221l-65 -165l56 -83v-10h-175v10l67 83l198 495l-45 110l128 47zM204 298h189l-97 235z" />
    <glyph glyph-name="B" unicode="B" horiz-adv-x="696" 
d="M404 401q246 -13 246 -207q0 -91 -69 -149.5t-192 -58.5q-109 0 -154 61v-47h-185v10l60 83v550l-62 82v10h247q140 0 212 -43.5t72 -127.5q0 -41 -17 -72.5t-46 -49t-55.5 -27t-56.5 -14.5zM297 699h-57v-289h46q86 0 131 40t45 112q0 131 -165 137zM366 30
q64 0 101.5 43t37.5 122q0 50 -17.5 87t-46.5 56t-60.5 27.5t-65.5 8.5h-75v-277q35 -67 126 -67z" />
    <glyph glyph-name="C" unicode="C" horiz-adv-x="768" 
d="M438 -14q-84 0 -152 23.5t-111.5 62t-73.5 89.5t-42.5 103t-12.5 106q0 168 112.5 273.5t272.5 105.5q116 0 205.5 -53.5t125.5 -144.5l-131 -118q12 112 -48 197t-163 85q-109 0 -174 -92t-65 -223q0 -161 76 -259.5t201 -98.5q53 0 94.5 15t67 40t39.5 48t22 48h30
v-193h-17l-57 43q-86 -57 -199 -57z" />
    <glyph glyph-name="D" unicode="D" horiz-adv-x="768" 
d="M296 735q37 0 72.5 -3.5t79.5 -13.5t81.5 -27t74.5 -47t62.5 -69t41.5 -97t16 -129q0 -101 -25.5 -174t-71.5 -113t-100 -58t-120 -18q-119 0 -167 73v-59h-183v10l57 83v550l-64 82v10h246zM397 29q185 0 185 308q0 362 -286 362h-52v-575q52 -95 153 -95z" />
    <glyph glyph-name="E" unicode="E" horiz-adv-x="671" 
d="M544 156l101 -106q-34 -29 -87 -39.5t-184 -10.5h-317v10l57 82v550l-73 83v10h509l36 -161h-19l-139 125h-184v-272h130l80 50h12v-163h-11l-81 73h-130v-349h95q82 0 129 27t76 91z" />
    <glyph glyph-name="F" unicode="F" horiz-adv-x="608" 
d="M428 699h-184v-273h125l80 47h12v-152h-11l-81 65h-125v-293l66 -83v-10h-258v10l62 83v549l-66 83v10h502l36 -161h-18z" />
    <glyph glyph-name="G" unicode="G" horiz-adv-x="808" 
d="M485 332v12h266v-344h-17l-54 77q-36 -42 -100 -66.5t-137 -24.5q-104 0 -184 34.5t-124.5 91.5t-66.5 121t-22 132q0 171 109 277.5t275 106.5q113 0 203.5 -53t130.5 -143l-128 -116q12 107 -51.5 192.5t-164.5 85.5q-110 0 -172 -91.5t-62 -218.5q0 -161 77.5 -258
t202.5 -97q104 0 157 58t53 145z" />
    <glyph glyph-name="H" unicode="H" horiz-adv-x="772" 
d="M664 94l60 -84v-10h-246v10l56 84v265h-296v-265l56 -84v-10h-246v10l60 84v551l-49 80v10h229v-10l-50 -80v-246h296v246l-50 80v10h228v-10l-48 -80v-551z" />
    <glyph glyph-name="I" unicode="I" horiz-adv-x="370" 
d="M58 0v10l62 83v550l-39 82v10h208v-10l-39 -82v-550l62 -83v-10h-254z" />
    <glyph glyph-name="J" unicode="J" horiz-adv-x="555" 
d="M213 -14q-27 0 -56.5 6t-64.5 21t-57.5 48.5t-22.5 81.5q0 65 42 107l115 -76q-45 -23 -45 -75q0 -37 26.5 -59.5t68.5 -22.5q109 0 109 153v474l-109 81v10h290v-10l-51 -82v-453q0 -36 -12 -70t-38.5 -65t-76.5 -50t-118 -19z" />
    <glyph glyph-name="K" unicode="K" horiz-adv-x="687" 
d="M389 423l282 -456h-23l-156 56l-229 368l-25 -23v-275l60 -83v-10h-250v10l60 83v550l-54 82v10h240v-10l-56 -82v-215l237 217l-44 80v10h212v-10l-101 -82l-243 -220h90z" />
    <glyph glyph-name="L" unicode="L" horiz-adv-x="606" 
d="M50 0v9l56 83v547l-58 87v9h246v-9l-58 -89v-599h116q54 0 90 31.5t46 89.5l110 -81q-40 -78 -236 -78h-312z" />
    <glyph glyph-name="M" unicode="M" horiz-adv-x="852" 
d="M366 -7l-165 527l-75 -427l62 -83v-10h-168v10l62 83l89 518l-37 104l123 30l162 -519v-40l118 438l-19 91l129 30l132 -652l53 -83v-10h-231v10l47 83l-91 435l-148 -535h-43z" />
    <glyph glyph-name="N" unicode="N" horiz-adv-x="713" 
d="M583 -6l-431 593v-494l57 -83v-10h-169v9l62 84v546l-57 86v10h169l337 -462l14 -60v430l-59 82v10h167v-10l-58 -82v-649h-32z" />
    <glyph glyph-name="O" unicode="O" horiz-adv-x="886" 
d="M448 -14q-175 0 -288.5 105t-113.5 276q0 172 110 277t280 105q178 0 291 -105t113 -277q0 -169 -112.5 -275t-279.5 -106zM469 20q114 0 170.5 88.5t56.5 228.5q0 158 -79 268t-197 110q-80 0 -133.5 -43.5t-75 -110.5t-21.5 -155q0 -164 79 -275t200 -111z" />
    <glyph glyph-name="P" unicode="P" horiz-adv-x="648" 
d="M308 735q310 0 310 -195q0 -53 -23.5 -92.5t-55 -59t-73 -31t-66.5 -14t-47 -2.5q-61 0 -111 22v-270l64 -83v-10h-254v10l60 83v549l-64 83v10h260zM335 382q20 0 38 3t39.5 13.5t37.5 27.5t26.5 47t10.5 69q0 157 -187 157h-58v-296q40 -21 93 -21z" />
    <glyph glyph-name="Q" unicode="Q" horiz-adv-x="894" 
d="M764 131q49 -46 69 -114l-138 -71q11 29 11 75q0 24 -5 47q-107 -82 -259 -82q-172 0 -284 105.5t-112 274.5q0 173 111 278t285 105q173 0 285.5 -105.5t112.5 -277.5q0 -135 -76 -235zM190 406q0 -172 76.5 -280t203.5 -108q25 0 36 1q-107 13 -107 87q0 44 43.5 71.5
t116.5 27.5q64 0 121 -22q18 69 18 154q0 163 -78 272t-196 109q-83 0 -137 -44t-75.5 -111.5t-21.5 -156.5zM550 45q77 0 115 93q-38 43 -107 43q-43 0 -69 -18.5t-26 -48.5q0 -32 26.5 -50.5t60.5 -18.5z" />
    <glyph glyph-name="R" unicode="R" horiz-adv-x="680" 
d="M435 334l233 -366h-20l-148 57l-225 349h-33v-281l60 -83v-10h-252v10l62 83v549l-65 84v9h229q311 0 311 -181q0 -48 -21.5 -83.5t-50.5 -53.5t-69.5 -28.5t-67.5 -12.5t-56 -2h-5zM242 699v-289h48q90 0 132.5 37.5t42.5 116.5q0 135 -189 135h-34z" />
    <glyph glyph-name="S" unicode="S" horiz-adv-x="599" 
d="M291 -14q-96 0 -162 38l-63 -24h-14v194h32q15 -78 71 -124t136 -46q76 0 119 33t43 91q0 43 -22 74.5t-56.5 52t-76.5 37.5t-84.5 37t-77 44.5t-56.5 66t-22 95.5q0 52 21.5 91.5t57.5 61t75 31.5t81 10q185 0 235 -123l-110 -74h-15q6 22 6 50q0 54 -31.5 82.5
t-90.5 28.5q-58 0 -90 -28t-32 -75q0 -42 22 -73.5t57 -51t77 -37t84 -37t77 -45t57 -68.5t22 -100q0 -95 -75 -153.5t-195 -58.5z" />
    <glyph glyph-name="T" unicode="T" horiz-adv-x="658" 
d="M204 0v9l60 84v606h-94l-137 -146h-13l37 182h544l37 -182h-13l-137 146h-94v-606l60 -84v-9h-250z" />
    <glyph glyph-name="U" unicode="U" horiz-adv-x="695" 
d="M362 -14q-136 0 -205 54t-69 175v429l-46 81v10h224v-10l-48 -81v-421q0 -93 46.5 -141.5t117.5 -48.5q72 0 115 46t43 124v441l-58 81v10h172v-10l-59 -81v-434q0 -103 -63 -163.5t-170 -60.5z" />
    <glyph glyph-name="V" unicode="V" horiz-adv-x="661" 
d="M325 -14l-252 658l-57 81v10h255v-10l-52 -81l159 -429l1 -44l167 473l-49 81v10h153v-10l-57 -81l-238 -658h-30z" />
    <glyph glyph-name="W" unicode="W" horiz-adv-x="942" 
d="M295 -14l-229 659l-50 81v9h223v-9l-40 -81l149 -451l93 344l-63 188v9h199v-9l-26 -93l122 -445l151 457l-53 81v9h157v-9l-56 -81l-226 -659h-44l-135 476l-130 -476h-42z" />
    <glyph glyph-name="X" unicode="X" horiz-adv-x="655" 
d="M588 93l59 -81v-12h-270v12l54 81l-146 234l-153 -234l60 -81v-12h-182v12l62 81l183 282l-168 270l-60 78v12h265v-12l-46 -78l100 -162l107 162l-43 78v12h160v-12l-59 -78l-137 -206z" />
    <glyph glyph-name="Y" unicode="Y" horiz-adv-x="592" 
d="M170 0v10l61 83v253l-219 380v9h249v-9l-54 -82l130 -229l137 229l-55 82v9h161v-9l-219 -361v-272l57 -83v-10h-248z" />
    <glyph glyph-name="Z" unicode="Z" horiz-adv-x="654" 
d="M18 0v12l388 686h-220l-135 -118h-23l40 154h504v-12l-381 -684h200q54 0 88.5 44.5t30.5 84.5l126 -108q-44 -59 -199 -59h-419z" />
    <glyph glyph-name="bracketleft" unicode="[" horiz-adv-x="273" 
d="M41 -124v872h213v-32h-78v-809h77v-31h-212z" />
    <glyph glyph-name="backslash" unicode="\" horiz-adv-x="530" 
d="M399 -57l-379 854h110l379 -854h-110z" />
    <glyph glyph-name="bracketright" unicode="]" horiz-adv-x="273" 
d="M18 -124v31h77v809h-78v32h213v-872h-212z" />
    <glyph glyph-name="asciicircum" unicode="^" horiz-adv-x="316" 
d="M40 639v7l118 131l118 -131v-7h-52l-66 52l-66 -52h-52z" />
    <glyph glyph-name="underscore" unicode="_" horiz-adv-x="512" 
d="M0 -50v50h512v-50h-512z" />
    <glyph glyph-name="grave" unicode="`" horiz-adv-x="313" 
d="M223 612l-163 127v6h114l79 -133h-30z" />
    <glyph glyph-name="a" unicode="a" horiz-adv-x="554" 
d="M187 -14q-68 0 -107.5 31t-39.5 82q0 141 312 189v60q0 95 -78 96q-32 0 -51 -15t-19 -42q0 -32 30 -54l-100 -84q-39 46 -39 107q0 55 51.5 86.5t133.5 31.5q34 0 63.5 -5.5t60.5 -19.5t49.5 -43.5t18.5 -72.5v-247l44 -76v-10h-164v51q-29 -29 -75 -47t-90 -18zM237 32
q69 0 115 54v172q-26 -3 -55 -13t-60 -27.5t-51 -46.5t-20 -65q0 -15 4 -29.5t21.5 -29.5t45.5 -15z" />
    <glyph glyph-name="b" unicode="b" horiz-adv-x="617" 
d="M338 -14q-95 0 -133 48v-34h-161v10l44 76v468q0 94 -52 129l156 59h16v-309q57 41 132 41q105 0 170.5 -66t65.5 -172q0 -114 -64.5 -182t-173.5 -68zM309 38q68 0 105.5 50t37.5 142q0 86 -38.5 136.5t-104.5 50.5q-69 0 -105 -47v-292q40 -40 105 -40z" />
    <glyph glyph-name="c" unicode="c" horiz-adv-x="537" 
d="M298 -14q-113 0 -186 70t-73 180q0 106 71 172t185 66q157 0 224 -114l-125 -51q3 18 3 33q0 48 -28 74t-75 26q-58 0 -94.5 -47.5t-36.5 -122.5q0 -90 48.5 -150t132.5 -60q90 0 139 76l35 -15q-29 -65 -86.5 -101t-133.5 -36z" />
    <glyph glyph-name="d" unicode="d" horiz-adv-x="597" 
d="M276 -14q-109 0 -173.5 68t-64.5 182q0 107 65 172.5t171 65.5q74 0 131 -40v113q0 95 -52 129l158 59h16v-649l44 -76v-10h-162v34q-38 -48 -133 -48zM305 54q65 0 105 40v285q-35 50 -108 50q-64 0 -102 -49.5t-38 -133.5q0 -89 38.5 -140.5t104.5 -51.5z" />
    <glyph glyph-name="e" unicode="e" horiz-adv-x="534" 
d="M471 128l31 -12q-52 -130 -203 -130q-48 0 -92.5 15t-83 44.5t-61.5 79.5t-23 114q0 106 67 170.5t178 64.5q99 0 157 -60t58 -158h-336q3 -94 50.5 -151t115.5 -57q48 0 86.5 22t55.5 58zM281 442q-54 0 -86 -41.5t-31 -110.5l225 15q1 63 -28 100t-80 37z" />
    <glyph glyph-name="f" unicode="f" horiz-adv-x="383" 
d="M61 0v10l52 76v340h-63v34h64v68q0 221 196 221q119 0 168 -74l-98 -75h-14q15 53 -1 87t-56 34q-76 0 -76 -125v-136h134v-34h-134v-340l55 -76v-10h-227z" />
    <glyph glyph-name="g" unicode="g" horiz-adv-x="565" 
d="M530 467v-116l-85 23q16 -35 16 -74q0 -80 -54 -127.5t-145 -47.5q-33 0 -67 8l-26 -57q82 0 135.5 -4t104.5 -18.5t76 -45.5t25 -79q0 -74 -61 -113.5t-161 -39.5q-157 0 -246 69l78 152q-49 20 -49 71q0 63 82 80q-91 46 -91 154q0 76 55.5 124t144.5 48q98 0 153 -57
l96 50h19zM277 157q36 0 55 31.5t19 88.5q0 74 -28.5 120.5t-73.5 46.5q-37 0 -57 -31.5t-20 -87.5q0 -75 29.5 -121.5t75.5 -46.5zM425 -107q0 40 -31.5 60t-70 22.5t-95.5 5t-87 9.5q-5 -22 -5 -49q0 -131 164 -131q59 0 92 22.5t33 60.5z" />
    <glyph glyph-name="h" unicode="h" horiz-adv-x="600" 
d="M42 0v10l44 76v480q0 95 -52 128l154 48h18v-338q23 35 61.5 52.5t75.5 17.5q82 0 127.5 -42.5t45.5 -119.5v-226l48 -76v-10h-212v10l44 76v214q0 120 -93 120q-44 0 -70.5 -29.5t-26.5 -78.5v-226l44 -76v-10h-208z" />
    <glyph glyph-name="i" unicode="i" horiz-adv-x="301" 
d="M148 585l-83 81l83 83l84 -83zM47 0v10l50 76v193q0 94 -52 129l156 59h16v-381l50 -76v-10h-220z" />
    <glyph glyph-name="j" unicode="j" horiz-adv-x="261" 
d="M133 585l-83 81l83 83l84 -83zM12 -210v20q22 5 37 17t22 24.5t10.5 32t3 32.5t-1.5 34.5t-1 29.5v318q0 94 -52 129l155 59h17v-509q0 -70 -47 -128.5t-143 -58.5z" />
    <glyph glyph-name="k" unicode="k" horiz-adv-x="582" 
d="M41 0v10l49 76v468q0 94 -52 129l156 59h16v-459l171 115l-33 52v10h178v-10l-210 -146l180 -218l74 -76v-10h-239v10l48 76l-132 173l-37 -27v-146l50 -76v-10h-219z" />
    <glyph glyph-name="l" unicode="l" horiz-adv-x="294" 
d="M40 0v10l50 76v468q0 94 -52 129l156 59h16v-656l50 -76v-10h-220z" />
    <glyph glyph-name="m" unicode="m" horiz-adv-x="880" 
d="M796 86l48 -76v-10h-214v10l46 76v214q0 120 -81 120q-40 0 -64.5 -30t-24.5 -78v-226l46 -76v-10h-212v10l46 76v214q0 120 -81 120q-40 0 -64.5 -30t-24.5 -78v-226l46 -76v-10h-214v10l48 76v206q0 95 -52 128l152 48h18v-64q22 35 59.5 52.5t74.5 17.5q103 0 141 -81
q41 81 141 81q77 0 121.5 -43.5t44.5 -118.5v-226z" />
    <glyph glyph-name="n" unicode="n" horiz-adv-x="610" 
d="M48 0v10l48 76v206q0 95 -52 128l152 48h18v-64q23 35 62 52.5t77 17.5q79 0 126 -44t47 -118v-226l48 -76v-10h-216v10l48 76v214q0 120 -93 120q-43 0 -70 -30t-27 -78v-226l48 -76v-10h-216z" />
    <glyph glyph-name="o" unicode="o" horiz-adv-x="592" 
d="M296 -14q-105 0 -181.5 61.5t-76.5 185.5q0 63 22.5 111t60.5 75.5t82 41t93 13.5q66 0 122.5 -23.5t96 -80t39.5 -137.5q0 -124 -76 -185.5t-182 -61.5zM309 18q53 0 86 49.5t33 143.5q0 100 -40.5 165.5t-105.5 65.5q-53 0 -85.5 -47t-32.5 -137q0 -106 39.5 -173
t105.5 -67z" />
    <glyph glyph-name="p" unicode="p" horiz-adv-x="617" 
d="M44 -210v10l44 76v403q0 102 -52 140l153 48h16v-46q58 53 135 53q106 0 171 -65.5t65 -172.5q0 -114 -64.5 -182t-173.5 -68q-95 0 -133 48v-158l46 -76v-10h-207zM309 38q68 0 105.5 50.5t37.5 141.5q0 86 -38.5 136.5t-104.5 50.5q-69 0 -105 -59v-267q38 -53 105 -53
z" />
    <glyph glyph-name="q" unicode="q" horiz-adv-x="605" 
d="M527 -124l44 -77v-9h-210v10l46 75v159q-38 -48 -131 -48q-109 0 -173.5 68t-64.5 182q0 107 66 172.5t176 65.5q78 0 136 -47l95 41h16v-592zM305 54q65 0 105 40v279q-36 49 -105 49q-66 0 -104.5 -47.5t-38.5 -128.5q0 -89 38.5 -140.5t104.5 -51.5z" />
    <glyph glyph-name="r" unicode="r" horiz-adv-x="465" 
d="M41 0v10l48 76v202q0 100 -43 127l144 53h17v-66q17 34 50.5 53t73.5 19q81 0 128 -63l-81 -109l-15 9q1 51 -17.5 80.5t-52.5 29.5q-30 0 -57 -32.5t-27 -86.5v-216l50 -76v-10h-218z" />
    <glyph glyph-name="s" unicode="s" horiz-adv-x="464" 
d="M48 -14v155h31q15 -59 54 -93.5t90 -34.5q44 0 68 20.5t24 55.5q0 32 -27.5 54t-66.5 36.5t-78.5 32t-67 51t-27.5 83.5q0 47 30.5 77.5t68.5 40.5t83 10q128 0 182 -83l-104 -76l-8 10q21 55 -1 87t-69 32q-35 0 -55.5 -17.5t-20.5 -48.5q0 -36 28 -60t68.5 -38t81 -30
t68.5 -48.5t28 -81.5q0 -72 -56.5 -103t-142.5 -31q-63 0 -107 24l-61 -24h-13z" />
    <glyph glyph-name="t" unicode="t" horiz-adv-x="377" 
d="M228 -14q-68 0 -107.5 37t-39.5 101v302h-58v18l166 164h12v-148h134v-34h-134v-336q0 -59 65 -59q50 0 83 50l22 -15q-45 -80 -143 -80z" />
    <glyph glyph-name="u" unicode="u" horiz-adv-x="585" 
d="M251 -14q-79 0 -127.5 44.5t-48.5 115.5v145q0 57 -7.5 85t-31.5 43l143 48h16v-304q0 -134 97 -134q46 0 69.5 35.5t23.5 98.5v128q0 54 -10 83t-34 45l148 48h16v-381l44 -76v-10h-163v54q-33 -68 -135 -68z" />
    <glyph glyph-name="v" unicode="v" horiz-adv-x="508" 
d="M240 -14l-224 464v10h215v-10l-44 -69l115 -247l110 248l-44 68v10h124v-10l-33 -66l-178 -398h-41z" />
    <glyph glyph-name="w" unicode="w" horiz-adv-x="722" 
d="M216 -14l-166 392l-34 72v10h189v-10l-29 -69l99 -237l65 164l-60 142v10h187v-10l-29 -69l92 -241l101 246l-36 64v10h111v-10l-34 -69l-163 -395h-43l-104 271l-108 -271h-38z" />
    <glyph glyph-name="x" unicode="x" horiz-adv-x="512" 
d="M295 265l201 -255v-10h-233v10l40 76l-86 112l-91 -112l40 -76v-10h-150v10l65 76l113 141l-172 223v10h216v-10l-34 -69l68 -87l66 87l-34 69v10h139v-10l-60 -71z" />
    <glyph glyph-name="y" unicode="y" horiz-adv-x="514" 
d="M147 -210v10l46 62l56 138l-243 450v10h215v-10l-44 -67l128 -253l104 252l-44 68v10h133v-10l-33 -66l-218 -522l38 -62v-10h-138z" />
    <glyph glyph-name="z" unicode="z" horiz-adv-x="471" 
d="M20 0v11l265 419h-140l-108 -101h-10l35 131h366v-11l-260 -417h86q50 0 82 32t30 66l87 -96q-18 -16 -55.5 -24t-64.5 -9t-74 -1h-239z" />
    <glyph glyph-name="braceleft" unicode="{" horiz-adv-x="288" 
d="M278 -125q-209 0 -209 129v188q0 108 -58 108v23q58 0 58 108v186q0 131 209 131v-16q-89 0 -89 -141v-180q0 -49 -16.5 -69.5t-59.5 -30.5q44 -10 60 -30t16 -69v-182q0 -139 89 -139v-16z" />
    <glyph glyph-name="bar" unicode="|" horiz-adv-x="234" 
d="M75 -269v1004h84v-1004h-84z" />
    <glyph glyph-name="braceright" unicode="}" horiz-adv-x="288" 
d="M9 -125v16q89 0 89 139v182q0 49 16.5 69.5t59.5 29.5q-44 11 -60 31.5t-16 68.5v180q0 141 -89 141v16q209 0 209 -131v-186q0 -108 58 -108v-23q-58 0 -58 -108v-188q0 -129 -209 -129z" />
    <glyph glyph-name="asciitilde" unicode="~" horiz-adv-x="511" 
d="M53 210l-32 10q1 6 2.5 15.5t11.5 34.5t25.5 44.5t45.5 35t69 15.5q40 0 70 -18.5t56 -36.5t56 -18q40 0 65.5 19t31.5 37l6 19h31q-1 -6 -2.5 -16.5t-11.5 -37.5t-25.5 -47t-45.5 -37t-69 -17q-31 0 -57 11.5t-41 25t-37 25t-46 11.5q-25 0 -45 -7.5t-30.5 -18.5
t-17 -22.5t-8.5 -18.5z" />
    <glyph glyph-name="cent" unicode="&#xa2;" horiz-adv-x="537" 
d="M344 62q90 0 139 76l35 -15q-58 -128 -202 -136v-54h-57v55q-98 13 -159 80.5t-61 167.5q0 97 60.5 161t159.5 75v83h57v-82q141 -8 203 -113l-125 -51q3 18 3 33q0 42 -21.5 67.5t-59.5 30.5v-376q18 -2 28 -2zM163 272q0 -63 25 -113.5t71 -75.5v354q-44 -14 -70 -58
t-26 -107z" />
    <glyph glyph-name="sterling" unicode="&#xa3;" horiz-adv-x="587" 
d="M453 162l115 -85q-40 -77 -239 -77h-289v9q91 86 116.5 136.5t25.5 113.5q0 42 -29 97h-84v36h63q-2 3 -13 21.5t-14 23t-12 21t-12 23.5t-9 21.5t-8.5 24.5t-4.5 22.5t-2 24.5q0 79 63 127t162 48q87 0 155 -40.5t79 -119.5l-119 -31h-15q5 67 -21.5 111.5t-75.5 44.5
q-47 0 -71 -34.5t-24 -82.5q0 -56 32.5 -123.5t36.5 -81.5h103v-36h-94q3 -21 3 -45q0 -94 -33 -156.5t-97 -128.5h157q69 0 107.5 39.5t47.5 96.5z" />
    <glyph glyph-name="dieresis" unicode="&#xa8;" horiz-adv-x="600" 
d="M123 539l-63 64l63 65l62 -65zM293 539l-63 64l63 65l62 -65z" />
    <glyph glyph-name="guillemotleft" unicode="&#xab;" horiz-adv-x="381" 
d="M189 110l-172 140v46l172 140h8v-59l-72 -104l72 -101v-62h-8zM356 110l-172 140v46l172 140h8v-59l-72 -104l72 -101v-62h-8z" />
    <glyph glyph-name="macron" unicode="&#xaf;" horiz-adv-x="360" 
d="M63 572v40h234v-40h-234z" />
    <glyph glyph-name="acute" unicode="&#xb4;" horiz-adv-x="330" 
d="M60 539l79 133h114v-6l-163 -127h-30z" />
    <glyph glyph-name="uni00B5" unicode="&#xb5;" horiz-adv-x="587" 
d="M185 -224l-100 24v500q0 57 -7.5 85t-31.5 43l140 48h16v-319q0 -58 24.5 -93.5t71.5 -35.5q30 0 50.5 10.5t30 30t13 40t3.5 47.5v144q0 54 -10 83t-34 45l144 48h16v-390l40 -75v-11h-155v24q-33 -39 -104 -39q-62 0 -90 38v-247h-17z" />
    <glyph glyph-name="paragraph" unicode="&#xb6;" horiz-adv-x="482" 
d="M276 -210l-65 30v452q-92 0 -156.5 64.5t-64.5 156.5t64.5 157t156.5 65h231v-925h-7l-65 30v845h-87v-875h-7z" />
    <glyph glyph-name="cedilla" unicode="&#xb8;" horiz-adv-x="600" 
d="M129 -224q-32 0 -69 10v30q19 -7 42 -7q29 0 44.5 9.5t15.5 22.5q0 21 -24.5 38t-73.5 21v10l117 106h34l-54 -82q46 -11 69.5 -34t23.5 -50q0 -31 -32.5 -52.5t-92.5 -21.5z" />
    <glyph glyph-name="guillemotright" unicode="&#xbb;" horiz-adv-x="381" 
d="M17 110v62l72 101l-72 104v59h8l172 -140v-46l-172 -140h-8zM184 110v62l72 101l-72 104v59h8l172 -140v-46l-172 -140h-8z" />
    <glyph glyph-name="Agrave" unicode="&#xc0;" horiz-adv-x="678" 
d="M427 814h-30l-163 127v6h114zM614 93l56 -84v-9h-242v9l49 84l-68 165h-221l-65 -165l56 -83v-10h-175v10l67 83l198 495l-45 110l128 47zM204 298h189l-97 235z" />
    <glyph glyph-name="Aacute" unicode="&#xc1;" horiz-adv-x="678" 
d="M446 941l-163 -127h-30l79 133h114v-6zM614 93l56 -84v-9h-242v9l49 84l-68 165h-221l-65 -165l56 -83v-10h-175v10l67 83l198 495l-45 110l128 47zM204 298h189l-97 235z" />
    <glyph glyph-name="Acircumflex" unicode="&#xc2;" horiz-adv-x="678" 
d="M339 868l-66 -52h-52v7l118 131l118 -131v-7h-52zM614 93l56 -84v-9h-242v9l49 84l-68 165h-221l-65 -165l56 -83v-10h-175v10l67 83l198 495l-45 110l128 47zM204 298h189l-97 235z" />
    <glyph glyph-name="Atilde" unicode="&#xc3;" horiz-adv-x="678" 
d="M278 862q-39 0 -48 -29l-35 15q8 31 32.5 51t50.5 20q25 0 62.5 -19t57.5 -19q19 0 34 8t19 20l33 -17q-11 -31 -33.5 -49.5t-52.5 -18.5q-20 0 -60 19t-60 19zM614 93l56 -84v-9h-242v9l49 84l-68 165h-221l-65 -165l56 -83v-10h-175v10l67 83l198 495l-45 110l128 47z
M204 298h189l-97 235z" />
    <glyph glyph-name="Adieresis" unicode="&#xc4;" horiz-adv-x="678" 
d="M318 878l-62 -64l-63 64l63 65zM488 878l-62 -64l-63 64l63 65zM614 93l56 -84v-9h-242v9l49 84l-68 165h-221l-65 -165l56 -83v-10h-175v10l67 83l198 495l-45 110l128 47zM204 298h189l-97 235z" />
    <glyph glyph-name="Aring" unicode="&#xc5;" horiz-adv-x="678" 
d="M339 799q-33 0 -56.5 23.5t-23.5 56.5t23.5 56.5t56.5 23.5t56.5 -23.5t23.5 -56.5t-23.5 -56.5t-56.5 -23.5zM339 911q-13 0 -22.5 -9.5t-9.5 -22.5t9.5 -22.5t22.5 -9.5t22.5 9.5t9.5 22.5t-9.5 22.5t-22.5 9.5zM614 93l56 -84v-9h-242v9l49 84l-68 165h-221l-65 -165
l56 -83v-10h-175v10l67 83l198 495l-45 110l128 47zM204 298h189l-97 235z" />
    <glyph glyph-name="AE" unicode="&#xc6;" horiz-adv-x="1058" 
d="M931 156l101 -106q-34 -29 -87 -39.5t-184 -10.5h-317v10l57 82v168h-245l-114 -167l35 -84h-1v-9h-172v9l80 84l398 571l-54 61v10h509l36 -161h-19l-139 125h-184v-272h130l80 50h12v-163h-11l-81 73h-130v-349h95q82 0 129 27t76 91zM501 298v311l-218 -311h218z" />
    <glyph glyph-name="Ccedilla" unicode="&#xc7;" horiz-adv-x="768" 
d="M458 42q53 0 94.5 15t67 40t39.5 48t22 48h30v-193h-17l-57 43q-86 -57 -199 -57h-20l-34 -52q46 -11 69.5 -34t23.5 -50q0 -31 -32.5 -52.5t-92.5 -21.5q-32 0 -69 10v30q19 -7 42 -7q29 0 44.5 9.5t15.5 22.5q0 21 -24.5 38t-73.5 21v10l88 80q-87 10 -153 48.5
t-103 93.5t-55 115t-18 123q0 168 112.5 273.5t272.5 105.5q116 0 205.5 -53.5t125.5 -144.5l-131 -118q12 112 -48 197t-163 85q-109 0 -174 -92t-65 -223q0 -161 76 -259.5t201 -98.5z" />
    <glyph glyph-name="Egrave" unicode="&#xc8;" horiz-adv-x="671" 
d="M424 814h-30l-163 127v6h114zM544 156l101 -106q-34 -29 -87 -39.5t-184 -10.5h-317v10l57 82v550l-73 83v10h509l36 -161h-19l-139 125h-184v-272h130l80 50h12v-163h-11l-81 73h-130v-349h95q82 0 129 27t76 91z" />
    <glyph glyph-name="Eacute" unicode="&#xc9;" horiz-adv-x="671" 
d="M443 941l-163 -127h-30l79 133h114v-6zM544 156l101 -106q-34 -29 -87 -39.5t-184 -10.5h-317v10l57 82v550l-73 83v10h509l36 -161h-19l-139 125h-184v-272h130l80 50h12v-163h-11l-81 73h-130v-349h95q82 0 129 27t76 91z" />
    <glyph glyph-name="Ecircumflex" unicode="&#xca;" horiz-adv-x="671" 
d="M336 868l-66 -52h-52v7l118 131l118 -131v-7h-52zM544 156l101 -106q-34 -29 -87 -39.5t-184 -10.5h-317v10l57 82v550l-73 83v10h509l36 -161h-19l-139 125h-184v-272h130l80 50h12v-163h-11l-81 73h-130v-349h95q82 0 129 27t76 91z" />
    <glyph glyph-name="Edieresis" unicode="&#xcb;" horiz-adv-x="671" 
d="M315 878l-62 -64l-63 64l63 65zM485 878l-62 -64l-63 64l63 65zM544 156l101 -106q-34 -29 -87 -39.5t-184 -10.5h-317v10l57 82v550l-73 83v10h509l36 -161h-19l-139 125h-184v-272h130l80 50h12v-163h-11l-81 73h-130v-349h95q82 0 129 27t76 91z" />
    <glyph glyph-name="Igrave" unicode="&#xcc;" horiz-adv-x="370" 
d="M244 814l-163 127v6h114l79 -133h-30zM58 0v10l62 83v550l-39 82v10h208v-10l-39 -82v-550l62 -83v-10h-254z" />
    <glyph glyph-name="Iacute" unicode="&#xcd;" horiz-adv-x="370" 
d="M100 814l79 133h114v-6l-163 -127h-30zM58 0v10l62 83v550l-39 82v10h208v-10l-39 -82v-550l62 -83v-10h-254z" />
    <glyph glyph-name="Icircumflex" unicode="&#xce;" horiz-adv-x="370" 
d="M68 816v7l118 131l118 -131v-7h-52l-66 52l-66 -52h-52zM58 0v10l62 83v550l-39 82v10h208v-10l-39 -82v-550l62 -83v-10h-254z" />
    <glyph glyph-name="Idieresis" unicode="&#xcf;" horiz-adv-x="370" 
d="M103 814l-63 64l63 65l62 -65zM273 814l-63 64l63 65l62 -65zM58 0v10l62 83v550l-39 82v10h208v-10l-39 -82v-550l62 -83v-10h-254z" />
    <glyph glyph-name="Eth" unicode="&#xd0;" horiz-adv-x="789" 
d="M317 735q37 0 72.5 -3.5t79.5 -13.5t81.5 -27t74.5 -47t62.5 -69t41.5 -97t16 -129q0 -101 -25.5 -174t-71.5 -113t-100 -58t-120 -18q-119 0 -167 73v-59h-183v10l57 83v221h-77v46h77v283l-64 82v10h246zM418 29q185 0 185 308q0 362 -286 362h-52v-339h100v-46h-100
v-190q52 -95 153 -95z" />
    <glyph glyph-name="Ntilde" unicode="&#xd1;" horiz-adv-x="713" 
d="M416 824q-20 0 -60 19t-60 19q-39 0 -48 -29l-35 15q8 31 32.5 51t50.5 20q25 0 62.5 -19t57.5 -19q19 0 34 8t19 20l33 -17q-11 -31 -33.5 -49.5t-52.5 -18.5zM583 -6l-431 593v-494l57 -83v-10h-169v9l62 84v546l-57 86v10h169l337 -462l14 -60v430l-59 82v10h167v-10
l-58 -82v-649h-32z" />
    <glyph glyph-name="Ograve" unicode="&#xd2;" horiz-adv-x="886" 
d="M501 814l-163 127v6h114l79 -133h-30zM448 -14q-175 0 -288.5 105t-113.5 276q0 172 110 277t280 105q178 0 291 -105t113 -277q0 -169 -112.5 -275t-279.5 -106zM469 20q114 0 170.5 88.5t56.5 228.5q0 158 -79 268t-197 110q-80 0 -133.5 -43.5t-75 -110.5t-21.5 -155
q0 -164 79 -275t200 -111z" />
    <glyph glyph-name="Oacute" unicode="&#xd3;" horiz-adv-x="886" 
d="M357 814l79 133h114v-6l-163 -127h-30zM448 -14q-175 0 -288.5 105t-113.5 276q0 172 110 277t280 105q178 0 291 -105t113 -277q0 -169 -112.5 -275t-279.5 -106zM469 20q114 0 170.5 88.5t56.5 228.5q0 158 -79 268t-197 110q-80 0 -133.5 -43.5t-75 -110.5t-21.5 -155
q0 -164 79 -275t200 -111z" />
    <glyph glyph-name="Ocircumflex" unicode="&#xd4;" horiz-adv-x="886" 
d="M325 816v7l118 131l118 -131v-7h-52l-66 52l-66 -52h-52zM448 -14q-175 0 -288.5 105t-113.5 276q0 172 110 277t280 105q178 0 291 -105t113 -277q0 -169 -112.5 -275t-279.5 -106zM469 20q114 0 170.5 88.5t56.5 228.5q0 158 -79 268t-197 110q-80 0 -133.5 -43.5
t-75 -110.5t-21.5 -155q0 -164 79 -275t200 -111z" />
    <glyph glyph-name="Otilde" unicode="&#xd5;" horiz-adv-x="886" 
d="M502 824q-20 0 -60 19t-60 19q-39 0 -48 -29l-35 15q8 31 32.5 51t50.5 20q25 0 62.5 -19t57.5 -19q19 0 34 8t19 20l33 -17q-11 -31 -33.5 -49.5t-52.5 -18.5zM448 -14q-175 0 -288.5 105t-113.5 276q0 172 110 277t280 105q178 0 291 -105t113 -277q0 -169 -112.5 -275
t-279.5 -106zM469 20q114 0 170.5 88.5t56.5 228.5q0 158 -79 268t-197 110q-80 0 -133.5 -43.5t-75 -110.5t-21.5 -155q0 -164 79 -275t200 -111z" />
    <glyph glyph-name="Odieresis" unicode="&#xd6;" horiz-adv-x="886" 
d="M360 814l-63 64l63 65l62 -65zM530 814l-63 64l63 65l62 -65zM448 -14q-175 0 -288.5 105t-113.5 276q0 172 110 277t280 105q178 0 291 -105t113 -277q0 -169 -112.5 -275t-279.5 -106zM469 20q114 0 170.5 88.5t56.5 228.5q0 158 -79 268t-197 110q-80 0 -133.5 -43.5
t-75 -110.5t-21.5 -155q0 -164 79 -275t200 -111z" />
    <glyph glyph-name="multiply" unicode="&#xd7;" horiz-adv-x="347" 
d="M276 338l-67 -67l67 -67l-36 -36l-67 67l-67 -67l-35 36l67 67l-67 67l35 36l67 -67l67 67z" />
    <glyph glyph-name="Oslash" unicode="&#xd8;" horiz-adv-x="886" 
d="M698 668q142 -107 142 -301q0 -169 -112.5 -275t-279.5 -106q-125 0 -220 55l-52 -69h-60l71 96q-67 51 -104 127.5t-37 171.5q0 172 110 277t280 105q123 0 218 -52l50 67h66zM190 406q0 -144 63 -250l348 469q-76 90 -181 90q-80 0 -133.5 -43.5t-75 -110.5t-21.5 -155
zM469 20q114 0 170.5 88.5t56.5 228.5t-63 244l-351 -467q78 -94 187 -94z" />
    <glyph glyph-name="Ugrave" unicode="&#xd9;" horiz-adv-x="695" 
d="M416 814l-163 127v6h114l79 -133h-30zM362 -14q-136 0 -205 54t-69 175v429l-46 81v10h224v-10l-48 -81v-421q0 -93 46.5 -141.5t117.5 -48.5q72 0 115 46t43 124v441l-58 81v10h172v-10l-59 -81v-434q0 -103 -63 -163.5t-170 -60.5z" />
    <glyph glyph-name="Uacute" unicode="&#xda;" horiz-adv-x="695" 
d="M272 814l79 133h114v-6l-163 -127h-30zM362 -14q-136 0 -205 54t-69 175v429l-46 81v10h224v-10l-48 -81v-421q0 -93 46.5 -141.5t117.5 -48.5q72 0 115 46t43 124v441l-58 81v10h172v-10l-59 -81v-434q0 -103 -63 -163.5t-170 -60.5z" />
    <glyph glyph-name="Ucircumflex" unicode="&#xdb;" horiz-adv-x="695" 
d="M240 816v7l118 131l118 -131v-7h-52l-66 52l-66 -52h-52zM362 -14q-136 0 -205 54t-69 175v429l-46 81v10h224v-10l-48 -81v-421q0 -93 46.5 -141.5t117.5 -48.5q72 0 115 46t43 124v441l-58 81v10h172v-10l-59 -81v-434q0 -103 -63 -163.5t-170 -60.5z" />
    <glyph glyph-name="Udieresis" unicode="&#xdc;" horiz-adv-x="695" 
d="M275 814l-63 64l63 65l62 -65zM445 814l-63 64l63 65l62 -65zM362 -14q-136 0 -205 54t-69 175v429l-46 81v10h224v-10l-48 -81v-421q0 -93 46.5 -141.5t117.5 -48.5q72 0 115 46t43 124v441l-58 81v10h172v-10l-59 -81v-434q0 -103 -63 -163.5t-170 -60.5z" />
    <glyph glyph-name="Yacute" unicode="&#xdd;" horiz-adv-x="592" 
d="M210 814l79 133h114v-6l-163 -127h-30zM170 0v10l61 83v253l-219 380v9h249v-9l-54 -82l130 -229l137 229l-55 82v9h161v-9l-219 -361v-272l57 -83v-10h-248z" />
    <glyph glyph-name="Thorn" unicode="&#xde;" horiz-adv-x="659" 
d="M306 45h-56v-162l62 -83v-10h-254v10l62 83v760l-39 82v10h208v-10l-39 -82v-154h60q146 0 227 -58t81 -163q0 -106 -82 -164.5t-230 -58.5zM304 455h-54v-376h60q89 0 138 49.5t49 139.5q0 89 -50.5 138t-142.5 49z" />
    <glyph glyph-name="germandbls" unicode="&#xdf;" horiz-adv-x="654" 
d="M406 457q98 -3 154 -66t56 -170t-63.5 -171t-170.5 -64q-52 0 -98.5 20.5t-65.5 57.5l95 102l19 -11q-18 -27 -18 -61q0 -27 17 -50t51 -23q47 0 75.5 49t28.5 135q0 81 -38 137.5t-114 56.5q-44 0 -74 -16l-19 43q123 50 123 177q0 56 -21 89.5t-57 33.5q-43 0 -66 -44
t-23 -125v-557h-171v8l52 80v424q0 113 60.5 175t170.5 62q83 0 132 -40t49 -108q0 -100 -84 -144z" />
    <glyph glyph-name="agrave" unicode="&#xe0;" horiz-adv-x="554" 
d="M335 539l-163 127v6h114l79 -133h-30zM187 -14q-68 0 -107.5 31t-39.5 82q0 141 312 189v60q0 95 -78 96q-32 0 -51 -15t-19 -42q0 -32 30 -54l-100 -84q-39 46 -39 107q0 55 51.5 86.5t133.5 31.5q34 0 63.5 -5.5t60.5 -19.5t49.5 -43.5t18.5 -72.5v-247l44 -76v-10
h-164v51q-29 -29 -75 -47t-90 -18zM237 32q69 0 115 54v172q-26 -3 -55 -13t-60 -27.5t-51 -46.5t-20 -65q0 -15 4 -29.5t21.5 -29.5t45.5 -15z" />
    <glyph glyph-name="aacute" unicode="&#xe1;" horiz-adv-x="554" 
d="M191 539l79 133h114v-6l-163 -127h-30zM187 -14q-68 0 -107.5 31t-39.5 82q0 141 312 189v60q0 95 -78 96q-32 0 -51 -15t-19 -42q0 -32 30 -54l-100 -84q-39 46 -39 107q0 55 51.5 86.5t133.5 31.5q34 0 63.5 -5.5t60.5 -19.5t49.5 -43.5t18.5 -72.5v-247l44 -76v-10
h-164v51q-29 -29 -75 -47t-90 -18zM237 32q69 0 115 54v172q-26 -3 -55 -13t-60 -27.5t-51 -46.5t-20 -65q0 -15 4 -29.5t21.5 -29.5t45.5 -15z" />
    <glyph glyph-name="acircumflex" unicode="&#xe2;" horiz-adv-x="554" 
d="M159 541v7l118 131l118 -131v-7h-52l-66 52l-66 -52h-52zM187 -14q-68 0 -107.5 31t-39.5 82q0 141 312 189v60q0 95 -78 96q-32 0 -51 -15t-19 -42q0 -32 30 -54l-100 -84q-39 46 -39 107q0 55 51.5 86.5t133.5 31.5q34 0 63.5 -5.5t60.5 -19.5t49.5 -43.5t18.5 -72.5
v-247l44 -76v-10h-164v51q-29 -29 -75 -47t-90 -18zM237 32q69 0 115 54v172q-26 -3 -55 -13t-60 -27.5t-51 -46.5t-20 -65q0 -15 4 -29.5t21.5 -29.5t45.5 -15z" />
    <glyph glyph-name="atilde" unicode="&#xe3;" horiz-adv-x="554" 
d="M336 549q-20 0 -60 19t-60 19q-39 0 -48 -29l-35 15q8 31 32.5 51t50.5 20q25 0 62.5 -19t57.5 -19q19 0 34 8t19 20l33 -17q-11 -31 -33.5 -49.5t-52.5 -18.5zM187 -14q-68 0 -107.5 31t-39.5 82q0 141 312 189v60q0 95 -78 96q-32 0 -51 -15t-19 -42q0 -32 30 -54
l-100 -84q-39 46 -39 107q0 55 51.5 86.5t133.5 31.5q34 0 63.5 -5.5t60.5 -19.5t49.5 -43.5t18.5 -72.5v-247l44 -76v-10h-164v51q-29 -29 -75 -47t-90 -18zM237 32q69 0 115 54v172q-26 -3 -55 -13t-60 -27.5t-51 -46.5t-20 -65q0 -15 4 -29.5t21.5 -29.5t45.5 -15z" />
    <glyph glyph-name="adieresis" unicode="&#xe4;" horiz-adv-x="554" 
d="M194 539l-63 64l63 65l62 -65zM364 539l-63 64l63 65l62 -65zM187 -14q-68 0 -107.5 31t-39.5 82q0 141 312 189v60q0 95 -78 96q-32 0 -51 -15t-19 -42q0 -32 30 -54l-100 -84q-39 46 -39 107q0 55 51.5 86.5t133.5 31.5q34 0 63.5 -5.5t60.5 -19.5t49.5 -43.5
t18.5 -72.5v-247l44 -76v-10h-164v51q-29 -29 -75 -47t-90 -18zM237 32q69 0 115 54v172q-26 -3 -55 -13t-60 -27.5t-51 -46.5t-20 -65q0 -15 4 -29.5t21.5 -29.5t45.5 -15z" />
    <glyph glyph-name="aring" unicode="&#xe5;" horiz-adv-x="554" 
d="M277 524q-33 0 -56.5 23.5t-23.5 56.5t23.5 56.5t56.5 23.5t56.5 -23.5t23.5 -56.5t-23.5 -56.5t-56.5 -23.5zM277 572q13 0 22.5 9t9.5 23t-9.5 23t-22.5 9t-22.5 -9t-9.5 -23t9.5 -23t22.5 -9zM187 -14q-68 0 -107.5 31t-39.5 82q0 141 312 189v60q0 95 -78 96
q-32 0 -51 -15t-19 -42q0 -32 30 -54l-100 -84q-39 46 -39 107q0 55 51.5 86.5t133.5 31.5q34 0 63.5 -5.5t60.5 -19.5t49.5 -43.5t18.5 -72.5v-247l44 -76v-10h-164v51q-29 -29 -75 -47t-90 -18zM237 32q69 0 115 54v172q-26 -3 -55 -13t-60 -27.5t-51 -46.5t-20 -65
q0 -15 4 -29.5t21.5 -29.5t45.5 -15z" />
    <glyph glyph-name="ae" unicode="&#xe6;" horiz-adv-x="843" 
d="M780 128l31 -12q-52 -130 -203 -130q-62 0 -118 24.5t-92 73.5q-27 -27 -49 -45t-66.5 -35.5t-95.5 -17.5q-68 0 -107.5 31t-39.5 82q0 141 312 189v60q0 96 -77 97q-29 0 -50 -14t-21 -44q0 -32 30 -54l-100 -84q-39 46 -39 107q0 55 51.5 86.5t133.5 31.5
q113 0 154 -61q63 61 159 61q99 0 157 -60t58 -158h-336q3 -94 50.5 -151t115.5 -57q48 0 86.5 22t55.5 58zM590 441q-53 0 -85 -40.5t-32 -110.5l225 19q0 61 -29 96.5t-79 35.5zM237 32q37 0 75.5 24t64.5 63q-25 52 -25 120v19q-26 -3 -55 -13t-60 -27.5t-51 -46.5
t-20 -65q0 -15 4 -29.5t21.5 -29.5t45.5 -15z" />
    <glyph glyph-name="ccedilla" unicode="&#xe7;" horiz-adv-x="537" 
d="M344 62q90 0 139 76l35 -15q-29 -64 -84.5 -100t-129.5 -37l-34 -52q46 -11 69.5 -34t23.5 -50q0 -31 -32.5 -52.5t-92.5 -21.5q-32 0 -69 10v30q19 -7 42 -7q29 0 44.5 9.5t15.5 22.5q0 21 -24.5 38t-73.5 21v10l86 78q-98 12 -159 80t-61 168q0 106 71 172t185 66
q157 0 224 -114l-125 -51q3 18 3 33q0 48 -28 74t-75 26q-58 0 -94.5 -47.5t-36.5 -122.5q0 -90 48.5 -150t132.5 -60z" />
    <glyph glyph-name="egrave" unicode="&#xe8;" horiz-adv-x="534" 
d="M359 539h-30l-163 127v6h114zM471 128l31 -12q-52 -130 -203 -130q-48 0 -92.5 15t-83 44.5t-61.5 79.5t-23 114q0 106 67 170.5t178 64.5q99 0 157 -60t58 -158h-336q3 -94 50.5 -151t115.5 -57q48 0 86.5 22t55.5 58zM281 442q-54 0 -86 -41.5t-31 -110.5l225 15
q1 63 -28 100t-80 37z" />
    <glyph glyph-name="eacute" unicode="&#xe9;" horiz-adv-x="534" 
d="M378 666l-163 -127h-30l79 133h114v-6zM471 128l31 -12q-52 -130 -203 -130q-48 0 -92.5 15t-83 44.5t-61.5 79.5t-23 114q0 106 67 170.5t178 64.5q99 0 157 -60t58 -158h-336q3 -94 50.5 -151t115.5 -57q48 0 86.5 22t55.5 58zM281 442q-54 0 -86 -41.5t-31 -110.5
l225 15q1 63 -28 100t-80 37z" />
    <glyph glyph-name="ecircumflex" unicode="&#xea;" horiz-adv-x="534" 
d="M271 593l-66 -52h-52v7l118 131l118 -131v-7h-52zM471 128l31 -12q-52 -130 -203 -130q-48 0 -92.5 15t-83 44.5t-61.5 79.5t-23 114q0 106 67 170.5t178 64.5q99 0 157 -60t58 -158h-336q3 -94 50.5 -151t115.5 -57q48 0 86.5 22t55.5 58zM281 442q-54 0 -86 -41.5
t-31 -110.5l225 15q1 63 -28 100t-80 37z" />
    <glyph glyph-name="edieresis" unicode="&#xeb;" horiz-adv-x="534" 
d="M250 603l-62 -64l-63 64l63 65zM420 603l-62 -64l-63 64l63 65zM471 128l31 -12q-52 -130 -203 -130q-48 0 -92.5 15t-83 44.5t-61.5 79.5t-23 114q0 106 67 170.5t178 64.5q99 0 157 -60t58 -158h-336q3 -94 50.5 -151t115.5 -57q48 0 86.5 22t55.5 58zM281 442
q-54 0 -86 -41.5t-31 -110.5l225 15q1 63 -28 100t-80 37z" />
    <glyph glyph-name="igrave" unicode="&#xec;" horiz-adv-x="304" 
d="M212 539l-163 127v6h114l79 -133h-30zM45 0v11l53 75v193q0 94 -52 129l156 59h16v-381l52 -75v-11h-225z" />
    <glyph glyph-name="iacute" unicode="&#xed;" horiz-adv-x="304" 
d="M68 539l79 133h114v-6l-163 -127h-30zM45 0v11l53 75v193q0 94 -52 129l156 59h16v-381l52 -75v-11h-225z" />
    <glyph glyph-name="icircumflex" unicode="&#xee;" horiz-adv-x="304" 
d="M36 541v7l118 131l118 -131v-7h-52l-66 52l-66 -52h-52zM45 0v11l53 75v193q0 94 -52 129l156 59h16v-381l52 -75v-11h-225z" />
    <glyph glyph-name="idieresis" unicode="&#xef;" horiz-adv-x="304" 
d="M71 539l-63 64l63 65l62 -65zM241 539l-63 64l63 65l62 -65zM45 0v11l53 75v193q0 94 -52 129l156 59h16v-381l52 -75v-11h-225z" />
    <glyph glyph-name="eth" unicode="&#xf0;" horiz-adv-x="577" 
d="M531 278h-1l1 -1q0 -139 -64 -215t-180 -76q-107 0 -179 65t-72 179q0 105 69 174.5t173 69.5q79 0 125 -50q-31 132 -110 208l-57 -58l-23 23l55 56q-30 25 -70 42l24 54q46 -16 94 -46l49 50l24 -24l-45 -46q90 -68 138.5 -174t48.5 -231zM300 35q54 0 82 55.5
t28 160.5q0 88 -33.5 136t-93.5 48q-54 0 -87.5 -49.5t-33.5 -130.5q0 -99 38.5 -159.5t99.5 -60.5z" />
    <glyph glyph-name="ntilde" unicode="&#xf1;" horiz-adv-x="610" 
d="M364 549q-20 0 -60 19t-60 19q-39 0 -48 -29l-35 15q8 31 32.5 51t50.5 20q25 0 62.5 -19t57.5 -19q19 0 34 8t19 20l33 -17q-11 -31 -33.5 -49.5t-52.5 -18.5zM48 0v10l48 76v206q0 95 -52 128l152 48h18v-64q23 35 62 52.5t77 17.5q79 0 126 -44t47 -118v-226l48 -76
v-10h-216v10l48 76v214q0 120 -93 120q-43 0 -70 -30t-27 -78v-226l48 -76v-10h-216z" />
    <glyph glyph-name="ograve" unicode="&#xf2;" horiz-adv-x="592" 
d="M354 539l-163 127v6h114l79 -133h-30zM296 -14q-105 0 -181.5 61.5t-76.5 185.5q0 63 22.5 111t60.5 75.5t82 41t93 13.5q66 0 122.5 -23.5t96 -80t39.5 -137.5q0 -124 -76 -185.5t-182 -61.5zM309 18q53 0 86 49.5t33 143.5q0 100 -40.5 165.5t-105.5 65.5
q-53 0 -85.5 -47t-32.5 -137q0 -106 39.5 -173t105.5 -67z" />
    <glyph glyph-name="oacute" unicode="&#xf3;" horiz-adv-x="592" 
d="M210 539l79 133h114v-6l-163 -127h-30zM296 -14q-105 0 -181.5 61.5t-76.5 185.5q0 63 22.5 111t60.5 75.5t82 41t93 13.5q66 0 122.5 -23.5t96 -80t39.5 -137.5q0 -124 -76 -185.5t-182 -61.5zM309 18q53 0 86 49.5t33 143.5q0 100 -40.5 165.5t-105.5 65.5
q-53 0 -85.5 -47t-32.5 -137q0 -106 39.5 -173t105.5 -67z" />
    <glyph glyph-name="ocircumflex" unicode="&#xf4;" horiz-adv-x="592" 
d="M178 541v7l118 131l118 -131v-7h-52l-66 52l-66 -52h-52zM296 -14q-105 0 -181.5 61.5t-76.5 185.5q0 63 22.5 111t60.5 75.5t82 41t93 13.5q66 0 122.5 -23.5t96 -80t39.5 -137.5q0 -124 -76 -185.5t-182 -61.5zM309 18q53 0 86 49.5t33 143.5q0 100 -40.5 165.5
t-105.5 65.5q-53 0 -85.5 -47t-32.5 -137q0 -106 39.5 -173t105.5 -67z" />
    <glyph glyph-name="otilde" unicode="&#xf5;" horiz-adv-x="592" 
d="M355 549q-20 0 -60 19t-60 19q-39 0 -48 -29l-35 15q8 31 32.5 51t50.5 20q25 0 62.5 -19t57.5 -19q19 0 34 8t19 20l33 -17q-11 -31 -33.5 -49.5t-52.5 -18.5zM296 -14q-105 0 -181.5 61.5t-76.5 185.5q0 63 22.5 111t60.5 75.5t82 41t93 13.5q66 0 122.5 -23.5t96 -80
t39.5 -137.5q0 -124 -76 -185.5t-182 -61.5zM309 18q53 0 86 49.5t33 143.5q0 100 -40.5 165.5t-105.5 65.5q-53 0 -85.5 -47t-32.5 -137q0 -106 39.5 -173t105.5 -67z" />
    <glyph glyph-name="odieresis" unicode="&#xf6;" horiz-adv-x="592" 
d="M213 539l-63 64l63 65l62 -65zM383 539l-63 64l63 65l62 -65zM296 -14q-105 0 -181.5 61.5t-76.5 185.5q0 63 22.5 111t60.5 75.5t82 41t93 13.5q66 0 122.5 -23.5t96 -80t39.5 -137.5q0 -124 -76 -185.5t-182 -61.5zM309 18q53 0 86 49.5t33 143.5q0 100 -40.5 165.5
t-105.5 65.5q-53 0 -85.5 -47t-32.5 -137q0 -106 39.5 -173t105.5 -67z" />
    <glyph glyph-name="divide" unicode="&#xf7;" horiz-adv-x="418" 
d="M202 316l-75 79l75 79l75 -79zM61 246v56h295v-56h-295zM202 79l-75 78l75 80l75 -80z" />
    <glyph glyph-name="oslash" unicode="&#xf8;" horiz-adv-x="592" 
d="M469 420q85 -66 85 -187q0 -124 -76 -185.5t-182 -61.5q-69 0 -129 27l-36 -48h-56l53 72q-90 66 -90 196q0 63 22.5 111t60.5 75.5t82 41t93 13.5q74 0 133 -30l38 52h58zM164 258q0 -83 24 -140l196 265q-41 59 -102 59q-53 0 -85.5 -47t-32.5 -137zM309 18
q53 0 86 49.5t33 143.5q0 72 -21 126l-196 -264q39 -55 98 -55z" />
    <glyph glyph-name="ugrave" unicode="&#xf9;" horiz-adv-x="585" 
d="M349 539l-163 127v6h114l79 -133h-30zM251 -14q-79 0 -127.5 44.5t-48.5 115.5v145q0 57 -7.5 85t-31.5 43l143 48h16v-304q0 -134 97 -134q46 0 69.5 35.5t23.5 98.5v128q0 54 -10 83t-34 45l148 48h16v-381l44 -76v-10h-163v54q-33 -68 -135 -68z" />
    <glyph glyph-name="uacute" unicode="&#xfa;" horiz-adv-x="585" 
d="M205 539l79 133h114v-6l-163 -127h-30zM251 -14q-79 0 -127.5 44.5t-48.5 115.5v145q0 57 -7.5 85t-31.5 43l143 48h16v-304q0 -134 97 -134q46 0 69.5 35.5t23.5 98.5v128q0 54 -10 83t-34 45l148 48h16v-381l44 -76v-10h-163v54q-33 -68 -135 -68z" />
    <glyph glyph-name="ucircumflex" unicode="&#xfb;" horiz-adv-x="585" 
d="M173 541v7l118 131l118 -131v-7h-52l-66 52l-66 -52h-52zM251 -14q-79 0 -127.5 44.5t-48.5 115.5v145q0 57 -7.5 85t-31.5 43l143 48h16v-304q0 -134 97 -134q46 0 69.5 35.5t23.5 98.5v128q0 54 -10 83t-34 45l148 48h16v-381l44 -76v-10h-163v54q-33 -68 -135 -68z
" />
    <glyph glyph-name="udieresis" unicode="&#xfc;" horiz-adv-x="585" 
d="M208 539l-63 64l63 65l62 -65zM378 539l-63 64l63 65l62 -65zM251 -14q-79 0 -127.5 44.5t-48.5 115.5v145q0 57 -7.5 85t-31.5 43l143 48h16v-304q0 -134 97 -134q46 0 69.5 35.5t23.5 98.5v128q0 54 -10 83t-34 45l148 48h16v-381l44 -76v-10h-163v54q-33 -68 -135 -68
z" />
    <glyph glyph-name="yacute" unicode="&#xfd;" horiz-adv-x="496" 
d="M205 529l79 133h131v-6l-170 -127h-40zM135 -210v12l43 60l56 138l-231 450v11h198v-11l-39 -66l129 -253l105 252l-42 67v11h129v-11l-33 -65l-170 -401l-48 -122l36 -60v-12h-133z" />
    <glyph glyph-name="thorn" unicode="&#xfe;" horiz-adv-x="600" 
d="M323 474q105 0 170.5 -66t65.5 -172q0 -114 -64.5 -182t-173.5 -68q-73 0 -130 39v-147l42 -79v-9h-204v9l42 79v676q0 100 -43 127l138 61h25v-308q52 40 132 40zM292 38q68 0 105.5 50t37.5 142q0 86 -38.5 136.5t-104.5 50.5t-105 -43v-295q41 -41 105 -41z" />
    <glyph glyph-name="ydieresis" unicode="&#xff;" horiz-adv-x="514" 
d="M180 539l-63 64l63 65l62 -65zM350 539l-63 64l63 65l62 -65zM147 -210v10l46 62l56 138l-243 450v10h215v-10l-44 -67l128 -253l104 252l-44 68v10h133v-10l-33 -66l-218 -522l38 -62v-10h-138z" />
    <glyph glyph-name="Amacron" unicode="&#x100;" horiz-adv-x="678" 
d="M456 887v-40h-234v40h234zM614 93l56 -84v-9h-242v9l49 84l-68 165h-221l-65 -165l56 -83v-10h-175v10l67 83l198 495l-45 110l128 47zM204 298h189l-97 235z" />
    <glyph glyph-name="amacron" unicode="&#x101;" horiz-adv-x="554" 
d="M160 572v40h234v-40h-234zM187 -14q-68 0 -107.5 31t-39.5 82q0 141 312 189v60q0 95 -78 96q-32 0 -51 -15t-19 -42q0 -32 30 -54l-100 -84q-39 46 -39 107q0 55 51.5 86.5t133.5 31.5q34 0 63.5 -5.5t60.5 -19.5t49.5 -43.5t18.5 -72.5v-247l44 -76v-10h-164v51
q-29 -29 -75 -47t-90 -18zM237 32q69 0 115 54v172q-26 -3 -55 -13t-60 -27.5t-51 -46.5t-20 -65q0 -15 4 -29.5t21.5 -29.5t45.5 -15z" />
    <glyph glyph-name="Abreve" unicode="&#x102;" horiz-adv-x="678" 
d="M339 814q-48 0 -80.5 32.5t-32.5 80.5h50q0 -25 17.5 -41t45.5 -16t45.5 16t17.5 41h50q0 -48 -32.5 -80.5t-80.5 -32.5zM614 93l56 -84v-9h-242v9l49 84l-68 165h-221l-65 -165l56 -83v-10h-175v10l67 83l198 495l-45 110l128 47zM204 298h189l-97 235z" />
    <glyph glyph-name="abreve" unicode="&#x103;" horiz-adv-x="554" 
d="M277 539q-48 0 -80.5 32.5t-32.5 80.5h50q0 -25 17.5 -41t45.5 -16t45.5 16t17.5 41h50q0 -48 -32.5 -80.5t-80.5 -32.5zM187 -14q-68 0 -107.5 31t-39.5 82q0 141 312 189v60q0 95 -78 96q-32 0 -51 -15t-19 -42q0 -32 30 -54l-100 -84q-39 46 -39 107q0 55 51.5 86.5
t133.5 31.5q34 0 63.5 -5.5t60.5 -19.5t49.5 -43.5t18.5 -72.5v-247l44 -76v-10h-164v51q-29 -29 -75 -47t-90 -18zM237 32q69 0 115 54v172q-26 -3 -55 -13t-60 -27.5t-51 -46.5t-20 -65q0 -15 4 -29.5t21.5 -29.5t45.5 -15z" />
    <glyph glyph-name="Aogonek" unicode="&#x104;" horiz-adv-x="678" 
d="M559 0q-52 -38 -52 -96q0 -49 43 -49q34 0 67 34l25 -21q-44 -54 -109 -54q-98 0 -98 79q0 53 71 107h-78v9l49 84l-68 165h-221l-65 -165l56 -83v-10h-175v10l67 83l198 495l-45 110l128 47l262 -652l56 -84v-9h-111zM204 298h189l-97 235z" />
    <glyph glyph-name="aogonek" unicode="&#x105;" horiz-adv-x="554" 
d="M389 0q-55 -38 -55 -98q0 -49 43 -49q34 0 67 34l25 -21q-44 -54 -109 -54q-98 0 -98 79q0 33 28 66t62 54v40q-29 -29 -75 -47t-90 -18q-68 0 -107.5 31t-39.5 82q0 141 312 189v60q0 95 -78 96q-32 0 -51 -15t-19 -42q0 -32 30 -54l-100 -84q-39 46 -39 107
q0 55 51.5 86.5t133.5 31.5q34 0 63.5 -5.5t60.5 -19.5t49.5 -43.5t18.5 -72.5v-247l44 -76v-10h-127zM237 32q69 0 115 54v172q-26 -3 -55 -13t-60 -27.5t-51 -46.5t-20 -65q0 -15 4 -29.5t21.5 -29.5t45.5 -15z" />
    <glyph glyph-name="Cacute" unicode="&#x106;" horiz-adv-x="768" 
d="M328 814l79 133h114v-6l-163 -127h-30zM438 -14q-84 0 -152 23.5t-111.5 62t-73.5 89.5t-42.5 103t-12.5 106q0 168 112.5 273.5t272.5 105.5q116 0 205.5 -53.5t125.5 -144.5l-131 -118q12 112 -48 197t-163 85q-109 0 -174 -92t-65 -223q0 -161 76 -259.5t201 -98.5
q53 0 94.5 15t67 40t39.5 48t22 48h30v-193h-17l-57 43q-86 -57 -199 -57z" />
    <glyph glyph-name="cacute" unicode="&#x107;" horiz-adv-x="537" 
d="M195 539l79 133h114v-6l-163 -127h-30zM298 -14q-113 0 -186 70t-73 180q0 106 71 172t185 66q157 0 224 -114l-125 -51q3 18 3 33q0 48 -28 74t-75 26q-58 0 -94.5 -47.5t-36.5 -122.5q0 -90 48.5 -150t132.5 -60q90 0 139 76l35 -15q-29 -65 -86.5 -101t-133.5 -36z
" />
    <glyph glyph-name="Ccircumflex" unicode="&#x108;" horiz-adv-x="768" 
d="M296 816v7l118 131l118 -131v-7h-52l-66 52l-66 -52h-52zM438 -14q-84 0 -152 23.5t-111.5 62t-73.5 89.5t-42.5 103t-12.5 106q0 168 112.5 273.5t272.5 105.5q116 0 205.5 -53.5t125.5 -144.5l-131 -118q12 112 -48 197t-163 85q-109 0 -174 -92t-65 -223
q0 -161 76 -259.5t201 -98.5q53 0 94.5 15t67 40t39.5 48t22 48h30v-193h-17l-57 43q-86 -57 -199 -57z" />
    <glyph glyph-name="ccircumflex" unicode="&#x109;" horiz-adv-x="537" 
d="M163 541v7l118 131l118 -131v-7h-52l-66 52l-66 -52h-52zM298 -14q-113 0 -186 70t-73 180q0 106 71 172t185 66q157 0 224 -114l-125 -51q3 18 3 33q0 48 -28 74t-75 26q-58 0 -94.5 -47.5t-36.5 -122.5q0 -90 48.5 -150t132.5 -60q90 0 139 76l35 -15
q-29 -65 -86.5 -101t-133.5 -36z" />
    <glyph glyph-name="Cdotaccent" unicode="&#x10a;" horiz-adv-x="768" 
d="M414 813q-25 0 -43.5 18.5t-18.5 43.5t18.5 43.5t43.5 18.5t43.5 -18.5t18.5 -43.5t-18.5 -43.5t-43.5 -18.5zM438 -14q-84 0 -152 23.5t-111.5 62t-73.5 89.5t-42.5 103t-12.5 106q0 168 112.5 273.5t272.5 105.5q116 0 205.5 -53.5t125.5 -144.5l-131 -118
q12 112 -48 197t-163 85q-109 0 -174 -92t-65 -223q0 -161 76 -259.5t201 -98.5q53 0 94.5 15t67 40t39.5 48t22 48h30v-193h-17l-57 43q-86 -57 -199 -57z" />
    <glyph glyph-name="cdotaccent" unicode="&#x10b;" horiz-adv-x="537" 
d="M281 538q-25 0 -43.5 18.5t-18.5 43.5t18.5 43.5t43.5 18.5t43.5 -18.5t18.5 -43.5t-18.5 -43.5t-43.5 -18.5zM298 -14q-113 0 -186 70t-73 180q0 106 71 172t185 66q157 0 224 -114l-125 -51q3 18 3 33q0 48 -28 74t-75 26q-58 0 -94.5 -47.5t-36.5 -122.5
q0 -90 48.5 -150t132.5 -60q90 0 139 76l35 -15q-29 -65 -86.5 -101t-133.5 -36z" />
    <glyph glyph-name="Ccaron" unicode="&#x10c;" horiz-adv-x="768" 
d="M416 798l-118 131v7h52l66 -52l66 52h52v-7zM438 -14q-84 0 -152 23.5t-111.5 62t-73.5 89.5t-42.5 103t-12.5 106q0 168 112.5 273.5t272.5 105.5q116 0 205.5 -53.5t125.5 -144.5l-131 -118q12 112 -48 197t-163 85q-109 0 -174 -92t-65 -223q0 -161 76 -259.5
t201 -98.5q53 0 94.5 15t67 40t39.5 48t22 48h30v-193h-17l-57 43q-86 -57 -199 -57z" />
    <glyph glyph-name="ccaron" unicode="&#x10d;" horiz-adv-x="537" 
d="M283 523l-118 131v7h52l66 -52l66 52h52v-7zM298 -14q-113 0 -186 70t-73 180q0 106 71 172t185 66q157 0 224 -114l-125 -51q3 18 3 33q0 48 -28 74t-75 26q-58 0 -94.5 -47.5t-36.5 -122.5q0 -90 48.5 -150t132.5 -60q90 0 139 76l35 -15q-29 -65 -86.5 -101
t-133.5 -36z" />
    <glyph glyph-name="Dcaron" unicode="&#x10e;" horiz-adv-x="768" 
d="M504 929l-118 -131l-118 131v7h52l66 -52l66 52h52v-7zM296 735q37 0 72.5 -3.5t79.5 -13.5t81.5 -27t74.5 -47t62.5 -69t41.5 -97t16 -129q0 -101 -25.5 -174t-71.5 -113t-100 -58t-120 -18q-119 0 -167 73v-59h-183v10l57 83v550l-64 82v10h246zM397 29q185 0 185 308
q0 362 -286 362h-52v-575q52 -95 153 -95z" />
    <glyph glyph-name="dcaron" unicode="&#x10f;" horiz-adv-x="597" 
d="M276 -14q-109 0 -173.5 68t-64.5 182q0 107 65 172.5t171 65.5q74 0 131 -40v113q0 95 -52 129l158 59h16v-649l44 -76v-10h-162v34q-38 -48 -133 -48zM206 523l-118 131v7h52l66 -52l66 52h52v-7zM305 54q65 0 105 40v285q-35 50 -108 50q-64 0 -102 -49.5t-38 -133.5
q0 -89 38.5 -140.5t104.5 -51.5z" />
    <glyph glyph-name="Dcroat" unicode="&#x110;" horiz-adv-x="789" 
d="M317 735q37 0 72.5 -3.5t79.5 -13.5t81.5 -27t74.5 -47t62.5 -69t41.5 -97t16 -129q0 -101 -25.5 -174t-71.5 -113t-100 -58t-120 -18q-119 0 -167 73v-59h-183v10l57 83v221h-77v46h77v283l-64 82v10h246zM418 29q185 0 185 308q0 362 -286 362h-52v-339h100v-46h-100
v-190q52 -95 153 -95z" />
    <glyph glyph-name="dcroat" unicode="&#x111;" horiz-adv-x="597" 
d="M571 573h-44v-487l44 -76v-10h-162v34q-38 -48 -133 -48q-109 0 -173.5 68t-64.5 182q0 107 65 172.5t171 65.5q74 0 131 -40v113q0 18 -1 26h-124v40h118q-12 41 -45 63l158 59h16v-122h44v-40zM410 94v285q-35 50 -108 50q-64 0 -102 -49.5t-38 -133.5
q0 -89 38.5 -140.5t104.5 -51.5q65 0 105 40z" />
    <glyph glyph-name="Emacron" unicode="&#x112;" horiz-adv-x="671" 
d="M453 887v-40h-234v40h234zM544 156l101 -106q-34 -29 -87 -39.5t-184 -10.5h-317v10l57 82v550l-73 83v10h509l36 -161h-19l-139 125h-184v-272h130l80 50h12v-163h-11l-81 73h-130v-349h95q82 0 129 27t76 91z" />
    <glyph glyph-name="emacron" unicode="&#x113;" horiz-adv-x="534" 
d="M388 612v-40h-234v40h234zM471 128l31 -12q-52 -130 -203 -130q-48 0 -92.5 15t-83 44.5t-61.5 79.5t-23 114q0 106 67 170.5t178 64.5q99 0 157 -60t58 -158h-336q3 -94 50.5 -151t115.5 -57q48 0 86.5 22t55.5 58zM281 442q-54 0 -86 -41.5t-31 -110.5l225 15
q1 63 -28 100t-80 37z" />
    <glyph glyph-name="ebreve" unicode="&#x115;" horiz-adv-x="534" 
d="M271 539q-48 0 -80.5 32.5t-32.5 80.5h50q0 -25 17.5 -41t45.5 -16t45.5 16t17.5 41h50q0 -48 -32.5 -80.5t-80.5 -32.5zM471 128l31 -12q-52 -130 -203 -130q-48 0 -92.5 15t-83 44.5t-61.5 79.5t-23 114q0 106 67 170.5t178 64.5q99 0 157 -60t58 -158h-336
q3 -94 50.5 -151t115.5 -57q48 0 86.5 22t55.5 58zM281 442q-54 0 -86 -41.5t-31 -110.5l225 15q1 63 -28 100t-80 37z" />
    <glyph glyph-name="Edotaccent" unicode="&#x116;" horiz-adv-x="671" 
d="M336 813q-25 0 -43.5 18.5t-18.5 43.5t18.5 43.5t43.5 18.5t43.5 -18.5t18.5 -43.5t-18.5 -43.5t-43.5 -18.5zM544 156l101 -106q-34 -29 -87 -39.5t-184 -10.5h-317v10l57 82v550l-73 83v10h509l36 -161h-19l-139 125h-184v-272h130l80 50h12v-163h-11l-81 73h-130v-349
h95q82 0 129 27t76 91z" />
    <glyph glyph-name="edotaccent" unicode="&#x117;" horiz-adv-x="534" 
d="M271 538q-25 0 -43.5 18.5t-18.5 43.5t18.5 43.5t43.5 18.5t43.5 -18.5t18.5 -43.5t-18.5 -43.5t-43.5 -18.5zM471 128l31 -12q-52 -130 -203 -130q-48 0 -92.5 15t-83 44.5t-61.5 79.5t-23 114q0 106 67 170.5t178 64.5q99 0 157 -60t58 -158h-336q3 -94 50.5 -151
t115.5 -57q48 0 86.5 22t55.5 58zM281 442q-54 0 -86 -41.5t-31 -110.5l225 15q1 63 -28 100t-80 37z" />
    <glyph glyph-name="Eogonek" unicode="&#x118;" horiz-adv-x="671" 
d="M325 -147q34 0 67 34l25 -21q-44 -54 -109 -54q-98 0 -98 79q0 28 22 58t52 51h-227v10l57 82v550l-73 83v10h509l36 -161h-19l-139 125h-184v-272h130l80 50h12v-163h-11l-81 73h-130v-349h95q82 0 129 27t76 91l101 -106q-34 -29 -87 -39.5t-184 -10.5h-37
q-55 -38 -55 -98q0 -49 43 -49z" />
    <glyph glyph-name="eogonek" unicode="&#x119;" horiz-adv-x="534" 
d="M285 -14q-38 -36 -38 -84q0 -49 43 -49q34 0 67 34l25 -21q-44 -54 -109 -54q-98 0 -98 79q0 49 64 101q-85 17 -142.5 79.5t-57.5 167.5q0 106 67 170.5t178 64.5q99 0 157 -60t58 -158h-336q3 -94 50.5 -151t115.5 -57q48 0 86.5 22t55.5 58l31 -12q-52 -130 -203 -130
h-14zM281 442q-54 0 -86 -41.5t-31 -110.5l225 15q1 63 -28 100t-80 37z" />
    <glyph glyph-name="Ecaron" unicode="&#x11a;" horiz-adv-x="671" 
d="M456 929l-118 -131l-118 131v7h52l66 -52l66 52h52v-7zM544 156l101 -106q-34 -29 -87 -39.5t-184 -10.5h-317v10l57 82v550l-73 83v10h509l36 -161h-19l-139 125h-184v-272h130l80 50h12v-163h-11l-81 73h-130v-349h95q82 0 129 27t76 91z" />
    <glyph glyph-name="ecaron" unicode="&#x11b;" horiz-adv-x="534" 
d="M391 654l-118 -131l-118 131v7h52l66 -52l66 52h52v-7zM471 128l31 -12q-52 -130 -203 -130q-48 0 -92.5 15t-83 44.5t-61.5 79.5t-23 114q0 106 67 170.5t178 64.5q99 0 157 -60t58 -158h-336q3 -94 50.5 -151t115.5 -57q48 0 86.5 22t55.5 58zM281 442q-54 0 -86 -41.5
t-31 -110.5l225 15q1 63 -28 100t-80 37z" />
    <glyph glyph-name="Gcircumflex" unicode="&#x11c;" horiz-adv-x="808" 
d="M417 868l-66 -52h-52v7l118 131l118 -131v-7h-52zM485 332v12h266v-344h-17l-54 77q-36 -42 -100 -66.5t-137 -24.5q-104 0 -184 34.5t-124.5 91.5t-66.5 121t-22 132q0 171 109 277.5t275 106.5q113 0 203.5 -53t130.5 -143l-128 -116q12 107 -51.5 192.5t-164.5 85.5
q-110 0 -172 -91.5t-62 -218.5q0 -161 77.5 -258t202.5 -97q104 0 157 58t53 145z" />
    <glyph glyph-name="gcircumflex" unicode="&#x11d;" horiz-adv-x="565" 
d="M263 593l-66 -52h-52v7l118 131l118 -131v-7h-52zM530 467v-116l-85 23q16 -35 16 -74q0 -80 -54 -127.5t-145 -47.5q-33 0 -67 8l-26 -57q82 0 135.5 -4t104.5 -18.5t76 -45.5t25 -79q0 -74 -61 -113.5t-161 -39.5q-157 0 -246 69l78 152q-49 20 -49 71q0 63 82 80
q-91 46 -91 154q0 76 55.5 124t144.5 48q98 0 153 -57l96 50h19zM277 157q36 0 55 31.5t19 88.5q0 74 -28.5 120.5t-73.5 46.5q-37 0 -57 -31.5t-20 -87.5q0 -75 29.5 -121.5t75.5 -46.5zM425 -107q0 40 -31.5 60t-70 22.5t-95.5 5t-87 9.5q-5 -22 -5 -49q0 -131 164 -131
q59 0 92 22.5t33 60.5z" />
    <glyph glyph-name="Gbreve" unicode="&#x11e;" horiz-adv-x="808" 
d="M417 814q-48 0 -80.5 32.5t-32.5 80.5h50q0 -25 17.5 -41t45.5 -16t45.5 16t17.5 41h50q0 -48 -32.5 -80.5t-80.5 -32.5zM485 332v12h266v-344h-17l-54 77q-36 -42 -100 -66.5t-137 -24.5q-104 0 -184 34.5t-124.5 91.5t-66.5 121t-22 132q0 171 109 277.5t275 106.5
q113 0 203.5 -53t130.5 -143l-128 -116q12 107 -51.5 192.5t-164.5 85.5q-110 0 -172 -91.5t-62 -218.5q0 -161 77.5 -258t202.5 -97q104 0 157 58t53 145z" />
    <glyph glyph-name="gbreve" unicode="&#x11f;" horiz-adv-x="565" 
d="M263 539q-48 0 -80.5 32.5t-32.5 80.5h50q0 -25 17.5 -41t45.5 -16t45.5 16t17.5 41h50q0 -48 -32.5 -80.5t-80.5 -32.5zM530 467v-116l-85 23q16 -35 16 -74q0 -80 -54 -127.5t-145 -47.5q-33 0 -67 8l-26 -57q82 0 135.5 -4t104.5 -18.5t76 -45.5t25 -79
q0 -74 -61 -113.5t-161 -39.5q-157 0 -246 69l78 152q-49 20 -49 71q0 63 82 80q-91 46 -91 154q0 76 55.5 124t144.5 48q98 0 153 -57l96 50h19zM277 157q36 0 55 31.5t19 88.5q0 74 -28.5 120.5t-73.5 46.5q-37 0 -57 -31.5t-20 -87.5q0 -75 29.5 -121.5t75.5 -46.5z
M425 -107q0 40 -31.5 60t-70 22.5t-95.5 5t-87 9.5q-5 -22 -5 -49q0 -131 164 -131q59 0 92 22.5t33 60.5z" />
    <glyph glyph-name="Gdotaccent" unicode="&#x120;" horiz-adv-x="808" 
d="M417 813q-25 0 -43.5 18.5t-18.5 43.5t18.5 43.5t43.5 18.5t43.5 -18.5t18.5 -43.5t-18.5 -43.5t-43.5 -18.5zM485 332v12h266v-344h-17l-54 77q-36 -42 -100 -66.5t-137 -24.5q-104 0 -184 34.5t-124.5 91.5t-66.5 121t-22 132q0 171 109 277.5t275 106.5
q113 0 203.5 -53t130.5 -143l-128 -116q12 107 -51.5 192.5t-164.5 85.5q-110 0 -172 -91.5t-62 -218.5q0 -161 77.5 -258t202.5 -97q104 0 157 58t53 145z" />
    <glyph glyph-name="gdotaccent" unicode="&#x121;" horiz-adv-x="565" 
d="M263 538q-25 0 -43.5 18.5t-18.5 43.5t18.5 43.5t43.5 18.5t43.5 -18.5t18.5 -43.5t-18.5 -43.5t-43.5 -18.5zM530 467v-116l-85 23q16 -35 16 -74q0 -80 -54 -127.5t-145 -47.5q-33 0 -67 8l-26 -57q82 0 135.5 -4t104.5 -18.5t76 -45.5t25 -79q0 -74 -61 -113.5
t-161 -39.5q-157 0 -246 69l78 152q-49 20 -49 71q0 63 82 80q-91 46 -91 154q0 76 55.5 124t144.5 48q98 0 153 -57l96 50h19zM277 157q36 0 55 31.5t19 88.5q0 74 -28.5 120.5t-73.5 46.5q-37 0 -57 -31.5t-20 -87.5q0 -75 29.5 -121.5t75.5 -46.5zM425 -107
q0 40 -31.5 60t-70 22.5t-95.5 5t-87 9.5q-5 -22 -5 -49q0 -131 164 -131q59 0 92 22.5t33 60.5z" />
    <glyph glyph-name="Gcommaaccent" unicode="&#x122;" horiz-adv-x="808" 
d="M485 332v12h266v-344h-17l-54 77q-36 -42 -100 -66.5t-137 -24.5q-104 0 -184 34.5t-124.5 91.5t-66.5 121t-22 132q0 171 109 277.5t275 106.5q113 0 203.5 -53t130.5 -143l-128 -116q12 107 -51.5 192.5t-164.5 85.5q-110 0 -172 -91.5t-62 -218.5q0 -161 77.5 -258
t202.5 -97q104 0 157 58t53 145zM358 -116l69 67l69 -68l-67 -163h-20q18 129 -51 164z" />
    <glyph glyph-name="gcommaaccent" unicode="&#x123;" horiz-adv-x="565" 
d="M333 604l-69 -67l-69 68l67 163h20q-18 -129 51 -164zM530 467v-116l-85 23q16 -35 16 -74q0 -80 -54 -127.5t-145 -47.5q-33 0 -67 8l-26 -57q82 0 135.5 -4t104.5 -18.5t76 -45.5t25 -79q0 -74 -61 -113.5t-161 -39.5q-157 0 -246 69l78 152q-49 20 -49 71q0 63 82 80
q-91 46 -91 154q0 76 55.5 124t144.5 48q98 0 153 -57l96 50h19zM277 157q36 0 55 31.5t19 88.5q0 74 -28.5 120.5t-73.5 46.5q-37 0 -57 -31.5t-20 -87.5q0 -75 29.5 -121.5t75.5 -46.5zM425 -107q0 40 -31.5 60t-70 22.5t-95.5 5t-87 9.5q-5 -22 -5 -49q0 -131 164 -131
q59 0 92 22.5t33 60.5z" />
    <glyph glyph-name="Hcircumflex" unicode="&#x124;" horiz-adv-x="772" 
d="M386 868l-66 -52h-52v7l118 131l118 -131v-7h-52zM664 94l60 -84v-10h-246v10l56 84v265h-296v-265l56 -84v-10h-246v10l60 84v551l-49 80v10h229v-10l-50 -80v-246h296v246l-50 80v10h228v-10l-48 -80v-551z" />
    <glyph glyph-name="hcircumflex" unicode="&#x125;" horiz-adv-x="600" 
d="M24 816v7l118 131l118 -131v-7h-52l-66 52l-66 -52h-52zM42 0v10l44 76v480q0 95 -52 128l154 48h18v-338q23 35 61.5 52.5t75.5 17.5q82 0 127.5 -42.5t45.5 -119.5v-226l48 -76v-10h-212v10l44 76v214q0 120 -93 120q-44 0 -70.5 -29.5t-26.5 -78.5v-226l44 -76v-10
h-208z" />
    <glyph glyph-name="Hbar" unicode="&#x126;" horiz-adv-x="772" 
d="M733 545h-69v-451l60 -84v-10h-246v10l56 84v265h-296v-265l56 -84v-10h-246v10l60 84v451h-69v40h69v60l-49 80v10h229v-10l-50 -80v-60h296v60l-50 80v10h228v-10l-48 -80v-60h69v-40zM534 399v146h-296v-146h296z" />
    <glyph glyph-name="hbar" unicode="&#x127;" horiz-adv-x="600" 
d="M516 86l48 -76v-10h-212v10l44 76v125h-190v-125l44 -76v-10h-208v10l44 76v480q0 95 -52 128l154 48h18v-338q23 35 61.5 52.5t75.5 17.5q82 0 127.5 -42.5t45.5 -119.5v-226zM206 251h190v49q0 120 -93 120q-44 0 -70.5 -29.5t-26.5 -78.5v-61z" />
    <glyph glyph-name="Itilde" unicode="&#x128;" horiz-adv-x="370" 
d="M245 824q-20 0 -60 19t-60 19q-39 0 -48 -29l-35 15q8 31 32.5 51t50.5 20q25 0 62.5 -19t57.5 -19q19 0 34 8t19 20l33 -17q-11 -31 -33.5 -49.5t-52.5 -18.5zM58 0v10l62 83v550l-39 82v10h208v-10l-39 -82v-550l62 -83v-10h-254z" />
    <glyph glyph-name="itilde" unicode="&#x129;" horiz-adv-x="304" 
d="M213 549q-20 0 -60 19t-60 19q-39 0 -48 -29l-35 15q8 31 32.5 51t50.5 20q25 0 62.5 -19t57.5 -19q19 0 34 8t19 20l33 -17q-11 -31 -33.5 -49.5t-52.5 -18.5zM45 0v11l53 75v193q0 94 -52 129l156 59h16v-381l52 -75v-11h-225z" />
    <glyph glyph-name="Imacron" unicode="&#x12a;" horiz-adv-x="370" 
d="M69 847v40h234v-40h-234zM58 0v10l62 83v550l-39 82v10h208v-10l-39 -82v-550l62 -83v-10h-254z" />
    <glyph glyph-name="imacron" unicode="&#x12b;" horiz-adv-x="304" 
d="M37 572v40h234v-40h-234zM45 0v11l53 75v193q0 94 -52 129l156 59h16v-381l52 -75v-11h-225z" />
    <glyph glyph-name="Ibreve" unicode="&#x12c;" horiz-adv-x="370" 
d="M186 814q-48 0 -80.5 32.5t-32.5 80.5h50q0 -25 17.5 -41t45.5 -16t45.5 16t17.5 41h50q0 -48 -32.5 -80.5t-80.5 -32.5zM58 0v10l62 83v550l-39 82v10h208v-10l-39 -82v-550l62 -83v-10h-254z" />
    <glyph glyph-name="ibreve" unicode="&#x12d;" horiz-adv-x="304" 
d="M154 539q-48 0 -80.5 32.5t-32.5 80.5h50q0 -25 17.5 -41t45.5 -16t45.5 16t17.5 41h50q0 -48 -32.5 -80.5t-80.5 -32.5zM45 0v11l53 75v193q0 94 -52 129l156 59h16v-381l52 -75v-11h-225z" />
    <glyph glyph-name="Iogonek" unicode="&#x12e;" horiz-adv-x="370" 
d="M216 0q-55 -38 -55 -98q0 -49 43 -49q34 0 67 34l25 -21q-44 -54 -109 -54q-98 0 -98 79q0 28 22 58t52 51h-105v10l62 83v550l-39 82v10h208v-10l-39 -82v-550l62 -83v-10h-96z" />
    <glyph glyph-name="iogonek" unicode="&#x12f;" horiz-adv-x="304" 
d="M154 538q-25 0 -43.5 18.5t-18.5 43.5t18.5 43.5t43.5 18.5t43.5 -18.5t18.5 -43.5t-18.5 -43.5t-43.5 -18.5zM183 0q-52 -38 -52 -96q0 -49 43 -49q34 0 67 34l25 -21q-44 -54 -109 -54q-98 0 -98 79q0 53 71 107h-85v11l53 75v193q0 94 -52 129l156 59h16v-381l52 -75
v-11h-87z" />
    <glyph glyph-name="Idotaccent" unicode="&#x130;" horiz-adv-x="370" 
d="M186 813q-25 0 -43.5 18.5t-18.5 43.5t18.5 43.5t43.5 18.5t43.5 -18.5t18.5 -43.5t-18.5 -43.5t-43.5 -18.5zM58 0v10l62 83v550l-39 82v10h208v-10l-39 -82v-550l62 -83v-10h-254z" />
    <glyph glyph-name="dotlessi" unicode="&#x131;" horiz-adv-x="304" 
d="M45 0v11l53 75v193q0 94 -52 129l156 59h16v-381l52 -75v-11h-225z" />
    <glyph glyph-name="Jcircumflex" unicode="&#x134;" horiz-adv-x="555" 
d="M247 816v7l118 131l118 -131v-7h-52l-66 52l-66 -52h-52zM213 -14q-27 0 -56.5 6t-64.5 21t-57.5 48.5t-22.5 81.5q0 65 42 107l115 -76q-45 -23 -45 -75q0 -37 26.5 -59.5t68.5 -22.5q109 0 109 153v474l-109 81v10h290v-10l-51 -82v-453q0 -36 -12 -70t-38.5 -65
t-76.5 -50t-118 -19z" />
    <glyph glyph-name="jcircumflex" unicode="&#x135;" horiz-adv-x="261" 
d="M16 547v7l118 131l118 -131v-7h-52l-66 52l-66 -52h-52zM12 -210v20q22 5 37 17t22 24.5t10.5 32t3 32.5t-1.5 34.5t-1 29.5v318q0 94 -52 129l155 59h17v-509q0 -70 -47 -128.5t-143 -58.5z" />
    <glyph glyph-name="Kcommaaccent" unicode="&#x136;" horiz-adv-x="687" 
d="M389 423l282 -456h-23l-156 56l-229 368l-25 -23v-275l60 -83v-10h-250v10l60 83v550l-54 82v10h240v-10l-56 -82v-215l237 217l-44 80v10h212v-10l-101 -82l-243 -220h90zM277 -116l69 67l69 -68l-67 -163h-20q18 129 -51 164z" />
    <glyph glyph-name="kcommaaccent" unicode="&#x137;" horiz-adv-x="582" 
d="M41 0v10l49 76v468q0 94 -52 129l156 59h16v-459l171 115l-33 52v10h178v-10l-210 -146l180 -218l74 -76v-10h-239v10l48 76l-132 173l-37 -27v-146l50 -76v-10h-219zM281 -280q18 129 -51 164l69 67l69 -68l-67 -163h-20z" />
    <glyph glyph-name="kra" unicode="&#x138;" horiz-adv-x="579" 
d="M207 371v-98l171 125l-33 52v10h178v-10l-210 -156l180 -208l74 -76v-10h-239v10l48 76l-132 163l-37 -27v-136l50 -76v-10h-219v10l50 76v285l-50 79v10h219v-10z" />
    <glyph glyph-name="Lacute" unicode="&#x139;" horiz-adv-x="606" 
d="M81 814l79 133h114v-6l-163 -127h-30zM50 0v9l56 83v547l-58 87v9h246v-9l-58 -89v-599h116q54 0 90 31.5t46 89.5l110 -81q-40 -78 -236 -78h-312z" />
    <glyph glyph-name="lacute" unicode="&#x13a;" horiz-adv-x="294" 
d="M62 814l79 133h114v-6l-163 -127h-30zM40 0v10l50 76v468q0 94 -52 129l156 59h16v-656l50 -76v-10h-220z" />
    <glyph glyph-name="Lcommaaccent" unicode="&#x13b;" horiz-adv-x="606" 
d="M50 0v9l56 83v547l-58 87v9h246v-9l-58 -89v-599h116q54 0 90 31.5t46 89.5l110 -81q-40 -78 -236 -78h-312zM243 -280q18 129 -51 164l69 67l69 -68l-67 -163h-20z" />
    <glyph glyph-name="lcommaaccent" unicode="&#x13c;" horiz-adv-x="294" 
d="M40 0v10l50 76v468q0 94 -52 129l156 59h16v-656l50 -76v-10h-220zM132 -280q18 129 -51 164l69 67l69 -68l-67 -163h-20z" />
    <glyph glyph-name="Lcaron" unicode="&#x13d;" horiz-adv-x="606" 
d="M169 798l-118 131v7h52l66 -52l66 52h52v-7zM50 0v9l56 83v547l-58 87v9h246v-9l-58 -89v-599h116q54 0 90 31.5t46 89.5l110 -81q-40 -78 -236 -78h-312z" />
    <glyph glyph-name="lcaron" unicode="&#x13e;" horiz-adv-x="294" 
d="M150 798l-118 131v7h52l66 -52l66 52h52v-7zM40 0v10l50 76v468q0 94 -52 129l156 59h16v-656l50 -76v-10h-220z" />
    <glyph glyph-name="Lslash" unicode="&#x141;" horiz-adv-x="617" 
d="M499 159l110 -81q-40 -78 -236 -78h-312v9l56 83v169l-69 -23v56l69 23v322l-58 87v9h246v-9l-58 -89v-278l197 65v-56l-197 -65v-265h116q54 0 90 31.5t46 89.5z" />
    <glyph glyph-name="lslash" unicode="&#x142;" horiz-adv-x="299" 
d="M287 330l-77 -26v-218l50 -76v-10h-220v10l50 76v179l-80 -27v56l80 27v233q0 94 -52 129l156 59h16v-382l77 26v-56z" />
    <glyph glyph-name="Nacute" unicode="&#x143;" horiz-adv-x="713" 
d="M271 814l79 133h114v-6l-163 -127h-30zM583 -6l-431 593v-494l57 -83v-10h-169v9l62 84v546l-57 86v10h169l337 -462l14 -60v430l-59 82v10h167v-10l-58 -82v-649h-32z" />
    <glyph glyph-name="nacute" unicode="&#x144;" horiz-adv-x="610" 
d="M219 539l79 133h114v-6l-163 -127h-30zM48 0v10l48 76v206q0 95 -52 128l152 48h18v-64q23 35 62 52.5t77 17.5q79 0 126 -44t47 -118v-226l48 -76v-10h-216v10l48 76v214q0 120 -93 120q-43 0 -70 -30t-27 -78v-226l48 -76v-10h-216z" />
    <glyph glyph-name="Ncommaaccent" unicode="&#x145;" horiz-adv-x="713" 
d="M583 -6l-431 593v-494l57 -83v-10h-169v9l62 84v546l-57 86v10h169l337 -462l14 -60v430l-59 82v10h167v-10l-58 -82v-649h-32zM341 -280q18 129 -51 164l69 67l69 -68l-67 -163h-20z" />
    <glyph glyph-name="ncommaaccent" unicode="&#x146;" horiz-adv-x="610" 
d="M48 0v10l48 76v206q0 95 -52 128l152 48h18v-64q23 35 62 52.5t77 17.5q79 0 126 -44t47 -118v-226l48 -76v-10h-216v10l48 76v214q0 120 -93 120q-43 0 -70 -30t-27 -78v-226l48 -76v-10h-216zM289 -280q18 129 -51 164l69 67l69 -68l-67 -163h-20z" />
    <glyph glyph-name="Ncaron" unicode="&#x147;" horiz-adv-x="713" 
d="M359 798l-118 131v7h52l66 -52l66 52h52v-7zM583 -6l-431 593v-494l57 -83v-10h-169v9l62 84v546l-57 86v10h169l337 -462l14 -60v430l-59 82v10h167v-10l-58 -82v-649h-32z" />
    <glyph glyph-name="ncaron" unicode="&#x148;" horiz-adv-x="610" 
d="M307 523l-118 131v7h52l66 -52l66 52h52v-7zM48 0v10l48 76v206q0 95 -52 128l152 48h18v-64q23 35 62 52.5t77 17.5q79 0 126 -44t47 -118v-226l48 -76v-10h-216v10l48 76v214q0 120 -93 120q-43 0 -70 -30t-27 -78v-226l48 -76v-10h-216z" />
    <glyph glyph-name="napostrophe" unicode="&#x149;" horiz-adv-x="610" 
d="M117 518q18 129 -51 164l69 67l69 -68l-67 -163h-20zM48 0v10l48 76v206q0 95 -52 128l152 48h18v-64q23 35 62 52.5t77 17.5q79 0 126 -44t47 -118v-226l48 -76v-10h-216v10l48 76v214q0 120 -93 120q-43 0 -70 -30t-27 -78v-226l48 -76v-10h-216z" />
    <glyph glyph-name="Eng" unicode="&#x14a;" horiz-adv-x="713" 
d="M673 725l-58 -82v-624l8 -19v-23q0 -70 -37.5 -128.5t-114.5 -58.5v20q98 31 98 170v33l-417 574v-494l57 -83v-10h-169v9l62 84v546l-57 86v10h169l337 -462l14 -60v430l-59 82v10h167v-10z" />
    <glyph glyph-name="eng" unicode="&#x14b;" horiz-adv-x="570" 
d="M336 -210v20q22 5 37 17t22 24.5t10.5 32t3 32.5t-1.5 34.5t-1 29.5v320q0 120 -93 120q-43 0 -70 -30t-27 -78v-226l48 -75v-11h-216v11l48 75v206q0 95 -52 128l152 48h18v-64q23 35 62 52.5t77 17.5q79 0 126 -44t47 -118v-335q0 -70 -47 -128.5t-143 -58.5z" />
    <glyph glyph-name="Omacron" unicode="&#x14c;" horiz-adv-x="886" 
d="M326 847v40h234v-40h-234zM448 -14q-175 0 -288.5 105t-113.5 276q0 172 110 277t280 105q178 0 291 -105t113 -277q0 -169 -112.5 -275t-279.5 -106zM469 20q114 0 170.5 88.5t56.5 228.5q0 158 -79 268t-197 110q-80 0 -133.5 -43.5t-75 -110.5t-21.5 -155
q0 -164 79 -275t200 -111z" />
    <glyph glyph-name="omacron" unicode="&#x14d;" horiz-adv-x="592" 
d="M179 572v40h234v-40h-234zM296 -14q-105 0 -181.5 61.5t-76.5 185.5q0 63 22.5 111t60.5 75.5t82 41t93 13.5q66 0 122.5 -23.5t96 -80t39.5 -137.5q0 -124 -76 -185.5t-182 -61.5zM309 18q53 0 86 49.5t33 143.5q0 100 -40.5 165.5t-105.5 65.5q-53 0 -85.5 -47
t-32.5 -137q0 -106 39.5 -173t105.5 -67z" />
    <glyph glyph-name="Obreve" unicode="&#x14e;" horiz-adv-x="886" 
d="M443 814q-48 0 -80.5 32.5t-32.5 80.5h50q0 -25 17.5 -41t45.5 -16t45.5 16t17.5 41h50q0 -48 -32.5 -80.5t-80.5 -32.5zM448 -14q-175 0 -288.5 105t-113.5 276q0 172 110 277t280 105q178 0 291 -105t113 -277q0 -169 -112.5 -275t-279.5 -106zM469 20
q114 0 170.5 88.5t56.5 228.5q0 158 -79 268t-197 110q-80 0 -133.5 -43.5t-75 -110.5t-21.5 -155q0 -164 79 -275t200 -111z" />
    <glyph glyph-name="obreve" unicode="&#x14f;" horiz-adv-x="592" 
d="M296 539q-48 0 -80.5 32.5t-32.5 80.5h50q0 -25 17.5 -41t45.5 -16t45.5 16t17.5 41h50q0 -48 -32.5 -80.5t-80.5 -32.5zM296 -14q-105 0 -181.5 61.5t-76.5 185.5q0 63 22.5 111t60.5 75.5t82 41t93 13.5q66 0 122.5 -23.5t96 -80t39.5 -137.5q0 -124 -76 -185.5
t-182 -61.5zM309 18q53 0 86 49.5t33 143.5q0 100 -40.5 165.5t-105.5 65.5q-53 0 -85.5 -47t-32.5 -137q0 -106 39.5 -173t105.5 -67z" />
    <glyph glyph-name="Ohungarumlaut" unicode="&#x150;" horiz-adv-x="886" 
d="M323 814l72 133h102v-6l-147 -127h-27zM450 814l71 133h103v-6l-147 -127h-27zM448 -14q-175 0 -288.5 105t-113.5 276q0 172 110 277t280 105q178 0 291 -105t113 -277q0 -169 -112.5 -275t-279.5 -106zM469 20q114 0 170.5 88.5t56.5 228.5q0 158 -79 268t-197 110
q-80 0 -133.5 -43.5t-75 -110.5t-21.5 -155q0 -164 79 -275t200 -111z" />
    <glyph glyph-name="ohungarumlaut" unicode="&#x151;" horiz-adv-x="592" 
d="M176 539l72 133h102v-6l-147 -127h-27zM303 539l71 133h103v-6l-147 -127h-27zM296 -14q-105 0 -181.5 61.5t-76.5 185.5q0 63 22.5 111t60.5 75.5t82 41t93 13.5q66 0 122.5 -23.5t96 -80t39.5 -137.5q0 -124 -76 -185.5t-182 -61.5zM309 18q53 0 86 49.5t33 143.5
q0 100 -40.5 165.5t-105.5 65.5q-53 0 -85.5 -47t-32.5 -137q0 -106 39.5 -173t105.5 -67z" />
    <glyph glyph-name="OE" unicode="&#x152;" horiz-adv-x="1188" 
d="M1162 50q-34 -29 -87 -39.5t-184 -10.5h-331q-56 -14 -112 -14q-175 0 -288.5 105t-113.5 276q0 173 111 277.5t285 104.5q59 0 117 -14h508l36 -161h-19l-139 125h-184v-272h130l80 50h12v-163h-11l-81 73h-130v-351h95q82 0 129 27.5t76 92.5zM190 406q0 -164 79 -276
t200 -112q103 0 162 77v521l-1 1v1q-28 47 -80 73.5t-114 26.5q-113 0 -179.5 -84.5t-66.5 -227.5z" />
    <glyph glyph-name="oe" unicode="&#x153;" horiz-adv-x="927" 
d="M864 128l31 -12q-52 -130 -203 -130q-121 0 -196 79q-72 -79 -200 -79q-105 0 -181.5 61.5t-76.5 185.5q0 63 22.5 111t60.5 75.5t82 41t93 13.5q121 0 194 -73q68 73 187 73q99 0 157 -60t58 -158h-336q3 -94 50.5 -151t115.5 -57q48 0 86.5 22t55.5 58zM309 18
q53 0 86 49.5t33 143.5q0 100 -40.5 165.5t-105.5 65.5q-53 0 -85.5 -47t-32.5 -137q0 -106 39.5 -173t105.5 -67zM674 442q-54 0 -86 -41.5t-31 -110.5l225 15q1 63 -28 100t-80 37z" />
    <glyph glyph-name="Racute" unicode="&#x154;" horiz-adv-x="680" 
d="M444 941l-163 -127h-30l79 133h114v-6zM435 334l233 -366h-20l-148 57l-225 349h-33v-281l60 -83v-10h-252v10l62 83v549l-65 84v9h229q311 0 311 -181q0 -48 -21.5 -83.5t-50.5 -53.5t-69.5 -28.5t-67.5 -12.5t-56 -2h-5zM242 699v-289h48q90 0 132.5 37.5t42.5 116.5
q0 135 -189 135h-34z" />
    <glyph glyph-name="racute" unicode="&#x155;" horiz-adv-x="465" 
d="M152 539l79 133h114v-6l-163 -127h-30zM41 0v10l48 76v202q0 100 -43 127l144 53h17v-66q17 34 50.5 53t73.5 19q81 0 128 -63l-81 -109l-15 9q1 51 -17.5 80.5t-52.5 29.5q-30 0 -57 -32.5t-27 -86.5v-216l50 -76v-10h-218z" />
    <glyph glyph-name="Rcommaaccent" unicode="&#x156;" horiz-adv-x="680" 
d="M435 334l233 -366h-20l-148 57l-225 349h-33v-281l60 -83v-10h-252v10l62 83v549l-65 84v9h229q311 0 311 -181q0 -48 -21.5 -83.5t-50.5 -53.5t-69.5 -28.5t-67.5 -12.5t-56 -2h-5zM242 699v-289h48q90 0 132.5 37.5t42.5 116.5q0 135 -189 135h-34zM270 -116l69 67
l69 -68l-67 -163h-20q18 129 -51 164z" />
    <glyph glyph-name="rcommaaccent" unicode="&#x157;" horiz-adv-x="465" 
d="M41 0v10l48 76v202q0 100 -43 127l144 53h17v-66q17 34 50.5 53t73.5 19q81 0 128 -63l-81 -109l-15 9q1 51 -17.5 80.5t-52.5 29.5q-30 0 -57 -32.5t-27 -86.5v-216l50 -76v-10h-218zM134 -280q18 129 -51 164l69 67l69 -68l-67 -163h-20z" />
    <glyph glyph-name="Rcaron" unicode="&#x158;" horiz-adv-x="680" 
d="M457 929l-118 -131l-118 131v7h52l66 -52l66 52h52v-7zM435 334l233 -366h-20l-148 57l-225 349h-33v-281l60 -83v-10h-252v10l62 83v549l-65 84v9h229q311 0 311 -181q0 -48 -21.5 -83.5t-50.5 -53.5t-69.5 -28.5t-67.5 -12.5t-56 -2h-5zM242 699v-289h48
q90 0 132.5 37.5t42.5 116.5q0 135 -189 135h-34z" />
    <glyph glyph-name="rcaron" unicode="&#x159;" horiz-adv-x="465" 
d="M240 523l-118 131v7h52l66 -52l66 52h52v-7zM41 0v10l48 76v202q0 100 -43 127l144 53h17v-66q17 34 50.5 53t73.5 19q81 0 128 -63l-81 -109l-15 9q1 51 -17.5 80.5t-52.5 29.5q-30 0 -57 -32.5t-27 -86.5v-216l50 -76v-10h-218z" />
    <glyph glyph-name="Sacute" unicode="&#x15a;" horiz-adv-x="599" 
d="M214 814l79 133h114v-6l-163 -127h-30zM291 -14q-96 0 -162 38l-63 -24h-14v194h32q15 -78 71 -124t136 -46q76 0 119 33t43 91q0 43 -22 74.5t-56.5 52t-76.5 37.5t-84.5 37t-77 44.5t-56.5 66t-22 95.5q0 52 21.5 91.5t57.5 61t75 31.5t81 10q185 0 235 -123l-110 -74
h-15q6 22 6 50q0 54 -31.5 82.5t-90.5 28.5q-58 0 -90 -28t-32 -75q0 -42 22 -73.5t57 -51t77 -37t84 -37t77 -45t57 -68.5t22 -100q0 -95 -75 -153.5t-195 -58.5z" />
    <glyph glyph-name="sacute" unicode="&#x15b;" horiz-adv-x="464" 
d="M146 539l79 133h114v-6l-163 -127h-30zM48 -14v155h31q15 -59 54 -93.5t90 -34.5q44 0 68 20.5t24 55.5q0 32 -27.5 54t-66.5 36.5t-78.5 32t-67 51t-27.5 83.5q0 47 30.5 77.5t68.5 40.5t83 10q128 0 182 -83l-104 -76l-8 10q21 55 -1 87t-69 32q-35 0 -55.5 -17.5
t-20.5 -48.5q0 -36 28 -60t68.5 -38t81 -30t68.5 -48.5t28 -81.5q0 -72 -56.5 -103t-142.5 -31q-63 0 -107 24l-61 -24h-13z" />
    <glyph glyph-name="Scircumflex" unicode="&#x15c;" horiz-adv-x="599" 
d="M182 816v7l118 131l118 -131v-7h-52l-66 52l-66 -52h-52zM291 -14q-96 0 -162 38l-63 -24h-14v194h32q15 -78 71 -124t136 -46q76 0 119 33t43 91q0 43 -22 74.5t-56.5 52t-76.5 37.5t-84.5 37t-77 44.5t-56.5 66t-22 95.5q0 52 21.5 91.5t57.5 61t75 31.5t81 10
q185 0 235 -123l-110 -74h-15q6 22 6 50q0 54 -31.5 82.5t-90.5 28.5q-58 0 -90 -28t-32 -75q0 -42 22 -73.5t57 -51t77 -37t84 -37t77 -45t57 -68.5t22 -100q0 -95 -75 -153.5t-195 -58.5z" />
    <glyph glyph-name="scircumflex" unicode="&#x15d;" horiz-adv-x="464" 
d="M114 541v7l118 131l118 -131v-7h-52l-66 52l-66 -52h-52zM48 -14v155h31q15 -59 54 -93.5t90 -34.5q44 0 68 20.5t24 55.5q0 32 -27.5 54t-66.5 36.5t-78.5 32t-67 51t-27.5 83.5q0 47 30.5 77.5t68.5 40.5t83 10q128 0 182 -83l-104 -76l-8 10q21 55 -1 87t-69 32
q-35 0 -55.5 -17.5t-20.5 -48.5q0 -36 28 -60t68.5 -38t81 -30t68.5 -48.5t28 -81.5q0 -72 -56.5 -103t-142.5 -31q-63 0 -107 24l-61 -24h-13z" />
    <glyph glyph-name="Scedilla" unicode="&#x15e;" horiz-adv-x="599" 
d="M561 198q0 -89 -68 -147t-177 -64l-35 -53q46 -11 69.5 -34t23.5 -50q0 -31 -32.5 -52.5t-92.5 -21.5q-32 0 -69 10v30q19 -7 42 -7q29 0 44.5 9.5t15.5 22.5q0 21 -24.5 38t-73.5 21v10l85 77q-84 4 -140 37l-63 -24h-14v194h32q15 -78 71 -124t136 -46q76 0 119 33
t43 91q0 43 -22 74.5t-56.5 52t-76.5 37.5t-84.5 37t-77 44.5t-56.5 66t-22 95.5q0 52 21.5 91.5t57.5 61t75 31.5t81 10q185 0 235 -123l-110 -74h-15q6 22 6 50q0 54 -31.5 82.5t-90.5 28.5q-58 0 -90 -28t-32 -75q0 -42 22 -73.5t57 -51t77 -37t84 -37t77 -45t57 -68.5
t22 -100z" />
    <glyph glyph-name="scedilla" unicode="&#x15f;" horiz-adv-x="464" 
d="M428 120q0 -119 -161 -132l-35 -54q46 -11 69.5 -34t23.5 -50q0 -31 -32.5 -52.5t-92.5 -21.5q-32 0 -69 10v30q19 -7 42 -7q29 0 44.5 9.5t15.5 22.5q0 21 -24.5 38t-73.5 21v10l84 76q-62 4 -97 24l-61 -24h-13v155h31q15 -59 54 -93.5t90 -34.5q15 0 29 3h1
q62 14 62 73q0 32 -27.5 54t-66.5 36.5t-78.5 32t-67 51t-27.5 83.5q0 47 30.5 77.5t68.5 40.5t83 10q128 0 182 -83l-104 -76l-8 10q21 55 -1 87t-69 32q-35 0 -55.5 -17.5t-20.5 -48.5q0 -36 28 -60t68.5 -38t81 -30t68.5 -48.5t28 -81.5z" />
    <glyph glyph-name="Scaron" unicode="&#x160;" horiz-adv-x="599" 
d="M290 810l-105 122v6h43l72 -43l74 43h41v-6l-105 -122h-20zM291 -14q-96 0 -162 38l-63 -24h-14v194h32q15 -78 71 -124t136 -46q76 0 119 33t43 91q0 43 -22 74.5t-56.5 52t-76.5 37.5t-84.5 37t-77 44.5t-56.5 66t-22 95.5q0 52 21.5 91.5t57.5 61t75 31.5t81 10
q185 0 235 -123l-110 -74h-15q6 22 6 50q0 54 -31.5 82.5t-90.5 28.5q-58 0 -90 -28t-32 -75q0 -42 22 -73.5t57 -51t77 -37t84 -37t77 -45t57 -68.5t22 -100q0 -95 -75 -153.5t-195 -58.5z" />
    <glyph glyph-name="scaron" unicode="&#x161;" horiz-adv-x="464" 
d="M222 535l-105 122v6h43l72 -43l74 43h41v-6l-105 -122h-20zM48 -14v155h31q15 -59 54 -93.5t90 -34.5q44 0 68 20.5t24 55.5q0 32 -27.5 54t-66.5 36.5t-78.5 32t-67 51t-27.5 83.5q0 47 30.5 77.5t68.5 40.5t83 10q128 0 182 -83l-104 -76l-8 10q21 55 -1 87t-69 32
q-35 0 -55.5 -17.5t-20.5 -48.5q0 -36 28 -60t68.5 -38t81 -30t68.5 -48.5t28 -81.5q0 -72 -56.5 -103t-142.5 -31q-63 0 -107 24l-61 -24h-13z" />
    <glyph glyph-name="uni0162" unicode="&#x162;" horiz-adv-x="658" 
d="M601 735l37 -182h-13l-137 146h-94v-606l60 -84v-9h-82l-43 -66q46 -11 69.5 -34t23.5 -50q0 -31 -32.5 -52.5t-92.5 -21.5q-32 0 -69 10v30q19 -7 42 -7q29 0 44.5 9.5t15.5 22.5q0 21 -24.5 38t-73.5 21v10l99 90h-127v9l60 84v606h-94l-137 -146h-13l37 182h544z" />
    <glyph glyph-name="uni0163" unicode="&#x163;" horiz-adv-x="377" 
d="M228 -14h-5l-34 -52q46 -11 69.5 -34t23.5 -50q0 -31 -32.5 -52.5t-92.5 -21.5q-32 0 -69 10v30q19 -7 42 -7q29 0 44.5 9.5t15.5 22.5q0 21 -24.5 38t-73.5 21v10l90 81q-48 12 -74.5 47t-26.5 86v302h-58v18l166 164h12v-148h134v-34h-134v-336q0 -59 65 -59
q50 0 83 50l22 -15q-45 -80 -143 -80z" />
    <glyph glyph-name="Tcaron" unicode="&#x164;" horiz-adv-x="658" 
d="M331 798l-118 131v7h52l66 -52l66 52h52v-7zM204 0v9l60 84v606h-94l-137 -146h-13l37 182h544l37 -182h-13l-137 146h-94v-606l60 -84v-9h-250z" />
    <glyph glyph-name="tcaron" unicode="&#x165;" horiz-adv-x="377" 
d="M156 671l-118 131v7h52l66 -52l66 52h52v-7zM228 -14q-68 0 -107.5 37t-39.5 101v302h-58v18l166 164h12v-148h134v-34h-134v-336q0 -59 65 -59q50 0 83 50l22 -15q-45 -80 -143 -80z" />
    <glyph glyph-name="Tbar" unicode="&#x166;" horiz-adv-x="658" 
d="M488 699h-94v-298h118v-40h-118v-268l60 -84v-9h-250v9l60 84v268h-103v40h103v298h-94l-137 -146h-13l37 182h544l37 -182h-13z" />
    <glyph glyph-name="tbar" unicode="&#x167;" horiz-adv-x="377" 
d="M349 81l22 -15q-45 -80 -143 -80q-68 0 -107.5 37t-39.5 101v198h-59v40h59v64h-58v18l166 164h12v-148h134v-34h-134v-64h88v-40h-88v-232q0 -59 65 -59q50 0 83 50z" />
    <glyph glyph-name="Utilde" unicode="&#x168;" horiz-adv-x="695" 
d="M417 824q-20 0 -60 19t-60 19q-39 0 -48 -29l-35 15q8 31 32.5 51t50.5 20q25 0 62.5 -19t57.5 -19q19 0 34 8t19 20l33 -17q-11 -31 -33.5 -49.5t-52.5 -18.5zM362 -14q-136 0 -205 54t-69 175v429l-46 81v10h224v-10l-48 -81v-421q0 -93 46.5 -141.5t117.5 -48.5
q72 0 115 46t43 124v441l-58 81v10h172v-10l-59 -81v-434q0 -103 -63 -163.5t-170 -60.5z" />
    <glyph glyph-name="utilde" unicode="&#x169;" horiz-adv-x="585" 
d="M350 549q-20 0 -60 19t-60 19q-39 0 -48 -29l-35 15q8 31 32.5 51t50.5 20q25 0 62.5 -19t57.5 -19q19 0 34 8t19 20l33 -17q-11 -31 -33.5 -49.5t-52.5 -18.5zM251 -14q-79 0 -127.5 44.5t-48.5 115.5v145q0 57 -7.5 85t-31.5 43l143 48h16v-304q0 -134 97 -134
q46 0 69.5 35.5t23.5 98.5v128q0 54 -10 83t-34 45l148 48h16v-381l44 -76v-10h-163v54q-33 -68 -135 -68z" />
    <glyph glyph-name="Umacron" unicode="&#x16a;" horiz-adv-x="695" 
d="M241 847v40h234v-40h-234zM362 -14q-136 0 -205 54t-69 175v429l-46 81v10h224v-10l-48 -81v-421q0 -93 46.5 -141.5t117.5 -48.5q72 0 115 46t43 124v441l-58 81v10h172v-10l-59 -81v-434q0 -103 -63 -163.5t-170 -60.5z" />
    <glyph glyph-name="umacron" unicode="&#x16b;" horiz-adv-x="585" 
d="M174 572v40h234v-40h-234zM251 -14q-79 0 -127.5 44.5t-48.5 115.5v145q0 57 -7.5 85t-31.5 43l143 48h16v-304q0 -134 97 -134q46 0 69.5 35.5t23.5 98.5v128q0 54 -10 83t-34 45l148 48h16v-381l44 -76v-10h-163v54q-33 -68 -135 -68z" />
    <glyph glyph-name="Ubreve" unicode="&#x16c;" horiz-adv-x="695" 
d="M358 814q-48 0 -80.5 32.5t-32.5 80.5h50q0 -25 17.5 -41t45.5 -16t45.5 16t17.5 41h50q0 -48 -32.5 -80.5t-80.5 -32.5zM362 -14q-136 0 -205 54t-69 175v429l-46 81v10h224v-10l-48 -81v-421q0 -93 46.5 -141.5t117.5 -48.5q72 0 115 46t43 124v441l-58 81v10h172v-10
l-59 -81v-434q0 -103 -63 -163.5t-170 -60.5z" />
    <glyph glyph-name="ubreve" unicode="&#x16d;" horiz-adv-x="585" 
d="M291 539q-48 0 -80.5 32.5t-32.5 80.5h50q0 -25 17.5 -41t45.5 -16t45.5 16t17.5 41h50q0 -48 -32.5 -80.5t-80.5 -32.5zM251 -14q-79 0 -127.5 44.5t-48.5 115.5v145q0 57 -7.5 85t-31.5 43l143 48h16v-304q0 -134 97 -134q46 0 69.5 35.5t23.5 98.5v128q0 54 -10 83
t-34 45l148 48h16v-381l44 -76v-10h-163v54q-33 -68 -135 -68z" />
    <glyph glyph-name="Uring" unicode="&#x16e;" horiz-adv-x="695" 
d="M358 799q-33 0 -56.5 23.5t-23.5 56.5t23.5 56.5t56.5 23.5t56.5 -23.5t23.5 -56.5t-23.5 -56.5t-56.5 -23.5zM358 847q14 0 23 9.5t9 22.5t-9 22.5t-23 9.5t-23 -9.5t-9 -22.5t9 -22.5t23 -9.5zM362 -14q-136 0 -205 54t-69 175v429l-46 81v10h224v-10l-48 -81v-421
q0 -93 46.5 -141.5t117.5 -48.5q72 0 115 46t43 124v441l-58 81v10h172v-10l-59 -81v-434q0 -103 -63 -163.5t-170 -60.5z" />
    <glyph glyph-name="uring" unicode="&#x16f;" horiz-adv-x="585" 
d="M291 524q-33 0 -56.5 23.5t-23.5 56.5t23.5 56.5t56.5 23.5t56.5 -23.5t23.5 -56.5t-23.5 -56.5t-56.5 -23.5zM291 572q13 0 22.5 9t9.5 23t-9.5 23t-22.5 9t-22.5 -9t-9.5 -23t9.5 -23t22.5 -9zM251 -14q-79 0 -127.5 44.5t-48.5 115.5v145q0 57 -7.5 85t-31.5 43
l143 48h16v-304q0 -134 97 -134q46 0 69.5 35.5t23.5 98.5v128q0 54 -10 83t-34 45l148 48h16v-381l44 -76v-10h-163v54q-33 -68 -135 -68z" />
    <glyph glyph-name="Uhungarumlaut" unicode="&#x170;" horiz-adv-x="695" 
d="M238 814l72 133h102v-6l-147 -127h-27zM365 814l71 133h103v-6l-147 -127h-27zM362 -14q-136 0 -205 54t-69 175v429l-46 81v10h224v-10l-48 -81v-421q0 -93 46.5 -141.5t117.5 -48.5q72 0 115 46t43 124v441l-58 81v10h172v-10l-59 -81v-434q0 -103 -63 -163.5
t-170 -60.5z" />
    <glyph glyph-name="uhungarumlaut" unicode="&#x171;" horiz-adv-x="585" 
d="M171 539l72 133h102v-6l-147 -127h-27zM298 539l71 133h103v-6l-147 -127h-27zM251 -14q-79 0 -127.5 44.5t-48.5 115.5v145q0 57 -7.5 85t-31.5 43l143 48h16v-304q0 -134 97 -134q46 0 69.5 35.5t23.5 98.5v128q0 54 -10 83t-34 45l148 48h16v-381l44 -76v-10h-163v54
q-33 -68 -135 -68z" />
    <glyph glyph-name="Uogonek" unicode="&#x172;" horiz-adv-x="695" 
d="M482 735h172v-10l-59 -81v-434q0 -101 -61 -161.5t-165 -62.5q-38 -36 -38 -84q0 -49 43 -49q34 0 67 34l25 -21q-44 -54 -109 -54q-98 0 -98 79q0 47 58 97q-114 8 -171.5 62t-57.5 165v429l-46 81v10h224v-10l-48 -81v-421q0 -93 46.5 -141.5t117.5 -48.5q72 0 115 46
t43 124v441l-58 81v10z" />
    <glyph glyph-name="uogonek" unicode="&#x173;" horiz-adv-x="585" 
d="M429 0q-55 -38 -55 -98q0 -49 43 -49q34 0 67 34l25 -21q-44 -54 -109 -54q-98 0 -98 79q0 31 25.5 63t58.5 53v47q-33 -68 -135 -68q-79 0 -127.5 44.5t-48.5 115.5v145q0 57 -7.5 85t-31.5 43l143 48h16v-304q0 -134 97 -134q46 0 69.5 35.5t23.5 98.5v128q0 54 -10 83
t-34 45l148 48h16v-381l44 -76v-10h-120z" />
    <glyph glyph-name="Wcircumflex" unicode="&#x174;" horiz-adv-x="942" 
d="M353 816v7l118 131l118 -131v-7h-52l-66 52l-66 -52h-52zM295 -14l-229 659l-50 81v9h223v-9l-40 -81l149 -451l93 344l-63 188v9h199v-9l-26 -93l122 -445l151 457l-53 81v9h157v-9l-56 -81l-226 -659h-44l-135 476l-130 -476h-42z" />
    <glyph glyph-name="wcircumflex" unicode="&#x175;" horiz-adv-x="722" 
d="M243 541v7l118 131l118 -131v-7h-52l-66 52l-66 -52h-52zM216 -14l-166 392l-34 72v10h189v-10l-29 -69l99 -237l65 164l-60 142v10h187v-10l-29 -69l92 -241l101 246l-36 64v10h111v-10l-34 -69l-163 -395h-43l-104 271l-108 -271h-38z" />
    <glyph glyph-name="Ycircumflex" unicode="&#x176;" horiz-adv-x="592" 
d="M178 816v7l118 131l118 -131v-7h-52l-66 52l-66 -52h-52zM170 0v10l61 83v253l-219 380v9h249v-9l-54 -82l130 -229l137 229l-55 82v9h161v-9l-219 -361v-272l57 -83v-10h-248z" />
    <glyph glyph-name="ycircumflex" unicode="&#x177;" horiz-adv-x="514" 
d="M145 541v7l118 131l118 -131v-7h-52l-66 52l-66 -52h-52zM147 -210v10l46 62l56 138l-243 450v10h215v-10l-44 -67l128 -253l104 252l-44 68v10h133v-10l-33 -66l-218 -522l38 -62v-10h-138z" />
    <glyph glyph-name="Ydieresis" unicode="&#x178;" horiz-adv-x="592" 
d="M213 814l-63 64l63 65l62 -65zM383 814l-63 64l63 65l62 -65zM170 0v10l61 83v253l-219 380v9h249v-9l-54 -82l130 -229l137 229l-55 82v9h161v-9l-219 -361v-272l57 -83v-10h-248z" />
    <glyph glyph-name="Zacute" unicode="&#x179;" horiz-adv-x="654" 
d="M241 814l79 133h114v-6l-163 -127h-30zM18 0v12l388 686h-220l-135 -118h-23l40 154h504v-12l-381 -684h200q54 0 88.5 44.5t30.5 84.5l126 -108q-44 -59 -199 -59h-419z" />
    <glyph glyph-name="zacute" unicode="&#x17a;" horiz-adv-x="471" 
d="M150 539l79 133h114v-6l-163 -127h-30zM20 0v11l265 419h-140l-108 -101h-10l35 131h366v-11l-260 -417h86q50 0 82 32t30 66l87 -96q-18 -16 -55.5 -24t-64.5 -9t-74 -1h-239z" />
    <glyph glyph-name="Zdotaccent" unicode="&#x17b;" horiz-adv-x="654" 
d="M327 813q-25 0 -43.5 18.5t-18.5 43.5t18.5 43.5t43.5 18.5t43.5 -18.5t18.5 -43.5t-18.5 -43.5t-43.5 -18.5zM18 0v12l388 686h-220l-135 -118h-23l40 154h504v-12l-381 -684h200q54 0 88.5 44.5t30.5 84.5l126 -108q-44 -59 -199 -59h-419z" />
    <glyph glyph-name="zdotaccent" unicode="&#x17c;" horiz-adv-x="471" 
d="M236 538q-25 0 -43.5 18.5t-18.5 43.5t18.5 43.5t43.5 18.5t43.5 -18.5t18.5 -43.5t-18.5 -43.5t-43.5 -18.5zM20 0v11l265 419h-140l-108 -101h-10l35 131h366v-11l-260 -417h86q50 0 82 32t30 66l87 -96q-18 -16 -55.5 -24t-64.5 -9t-74 -1h-239z" />
    <glyph glyph-name="Zcaron" unicode="&#x17d;" horiz-adv-x="654" 
d="M317 810l-105 122v6h43l72 -43l74 43h41v-6l-105 -122h-20zM18 0v12l388 686h-220l-135 -118h-23l40 154h504v-12l-381 -684h200q54 0 88.5 44.5t30.5 84.5l126 -108q-44 -59 -199 -59h-419z" />
    <glyph glyph-name="zcaron" unicode="&#x17e;" horiz-adv-x="471" 
d="M230 535l-105 122v6h43l72 -43l74 43h41v-6l-105 -122h-20zM20 0v11l265 419h-140l-108 -101h-10l35 131h366v-11l-260 -417h86q50 0 82 32t30 66l87 -96q-18 -16 -55.5 -24t-64.5 -9t-74 -1h-239z" />
    <glyph glyph-name="slong" unicode="&#x17f;" horiz-adv-x="375" 
d="M61 0v10l52 76v343h-63v31h64v68q0 221 196 221q119 0 168 -74l-98 -75h-14q15 53 -1 87t-56 34q-76 0 -76 -125v-510l55 -76v-10h-227z" />
    <glyph glyph-name="uni01CD" unicode="&#x1cd;" horiz-adv-x="678" 
d="M459 929l-118 -131l-118 131v7h52l66 -52l66 52h52v-7zM614 93l56 -84v-9h-242v9l49 84l-68 165h-221l-65 -165l56 -83v-10h-175v10l67 83l198 495l-45 110l128 47zM204 298h189l-97 235z" />
    <glyph glyph-name="uni01CE" unicode="&#x1ce;" horiz-adv-x="554" 
d="M279 523l-118 131v7h52l66 -52l66 52h52v-7zM187 -14q-68 0 -107.5 31t-39.5 82q0 141 312 189v60q0 95 -78 96q-32 0 -51 -15t-19 -42q0 -32 30 -54l-100 -84q-39 46 -39 107q0 55 51.5 86.5t133.5 31.5q34 0 63.5 -5.5t60.5 -19.5t49.5 -43.5t18.5 -72.5v-247l44 -76
v-10h-164v51q-29 -29 -75 -47t-90 -18zM237 32q69 0 115 54v172q-26 -3 -55 -13t-60 -27.5t-51 -46.5t-20 -65q0 -15 4 -29.5t21.5 -29.5t45.5 -15z" />
    <glyph glyph-name="uni01CF" unicode="&#x1cf;" horiz-adv-x="370" 
d="M188 798l-118 131v7h52l66 -52l66 52h52v-7zM58 0v10l62 83v550l-39 82v10h208v-10l-39 -82v-550l62 -83v-10h-254z" />
    <glyph glyph-name="uni01D0" unicode="&#x1d0;" horiz-adv-x="304" 
d="M156 523l-118 131v7h52l66 -52l66 52h52v-7zM45 0v11l53 75v193q0 94 -52 129l156 59h16v-381l52 -75v-11h-225z" />
    <glyph glyph-name="uni01D1" unicode="&#x1d1;" horiz-adv-x="886" 
d="M445 798l-118 131v7h52l66 -52l66 52h52v-7zM448 -14q-175 0 -288.5 105t-113.5 276q0 172 110 277t280 105q178 0 291 -105t113 -277q0 -169 -112.5 -275t-279.5 -106zM469 20q114 0 170.5 88.5t56.5 228.5q0 158 -79 268t-197 110q-80 0 -133.5 -43.5t-75 -110.5
t-21.5 -155q0 -164 79 -275t200 -111z" />
    <glyph glyph-name="uni01D2" unicode="&#x1d2;" horiz-adv-x="592" 
d="M298 523l-118 131v7h52l66 -52l66 52h52v-7zM296 -14q-105 0 -181.5 61.5t-76.5 185.5q0 63 22.5 111t60.5 75.5t82 41t93 13.5q66 0 122.5 -23.5t96 -80t39.5 -137.5q0 -124 -76 -185.5t-182 -61.5zM309 18q53 0 86 49.5t33 143.5q0 100 -40.5 165.5t-105.5 65.5
q-53 0 -85.5 -47t-32.5 -137q0 -106 39.5 -173t105.5 -67z" />
    <glyph glyph-name="uni01D3" unicode="&#x1d3;" horiz-adv-x="695" 
d="M360 798l-118 131v7h52l66 -52l66 52h52v-7zM362 -14q-136 0 -205 54t-69 175v429l-46 81v10h224v-10l-48 -81v-421q0 -93 46.5 -141.5t117.5 -48.5q72 0 115 46t43 124v441l-58 81v10h172v-10l-59 -81v-434q0 -103 -63 -163.5t-170 -60.5z" />
    <glyph glyph-name="uni01D4" unicode="&#x1d4;" horiz-adv-x="585" 
d="M293 523l-118 131v7h52l66 -52l66 52h52v-7zM251 -14q-79 0 -127.5 44.5t-48.5 115.5v145q0 57 -7.5 85t-31.5 43l143 48h16v-304q0 -134 97 -134q46 0 69.5 35.5t23.5 98.5v128q0 54 -10 83t-34 45l148 48h16v-381l44 -76v-10h-163v54q-33 -68 -135 -68z" />
    <glyph glyph-name="AEacute" unicode="&#x1fc;" horiz-adv-x="1058" 
d="M653 941l-163 -127h-30l79 133h114v-6zM931 156l101 -106q-34 -29 -87 -39.5t-184 -10.5h-317v10l57 82v168h-245l-114 -167l35 -84h-1v-9h-172v9l80 84l398 571l-54 61v10h509l36 -161h-19l-139 125h-184v-272h130l80 50h12v-163h-11l-81 73h-130v-349h95q82 0 129 27
t76 91zM501 298v311l-218 -311h218z" />
    <glyph glyph-name="Scommaaccent" unicode="&#x218;" horiz-adv-x="599" 
d="M291 -14q-96 0 -162 38l-63 -24h-14v194h32q15 -78 71 -124t136 -46q76 0 119 33t43 91q0 43 -22 74.5t-56.5 52t-76.5 37.5t-84.5 37t-77 44.5t-56.5 66t-22 95.5q0 52 21.5 91.5t57.5 61t75 31.5t81 10q185 0 235 -123l-110 -74h-15q6 22 6 50q0 54 -31.5 82.5
t-90.5 28.5q-58 0 -90 -28t-32 -75q0 -42 22 -73.5t57 -51t77 -37t84 -37t77 -45t57 -68.5t22 -100q0 -95 -75 -153.5t-195 -58.5zM265 -280q18 129 -51 164l69 67l69 -68l-67 -163h-20z" />
    <glyph glyph-name="scommaaccent" unicode="&#x219;" horiz-adv-x="464" 
d="M48 -14v155h31q15 -59 54 -93.5t90 -34.5q44 0 68 20.5t24 55.5q0 32 -27.5 54t-66.5 36.5t-78.5 32t-67 51t-27.5 83.5q0 47 30.5 77.5t68.5 40.5t83 10q128 0 182 -83l-104 -76l-8 10q21 55 -1 87t-69 32q-35 0 -55.5 -17.5t-20.5 -48.5q0 -36 28 -60t68.5 -38t81 -30
t68.5 -48.5t28 -81.5q0 -72 -56.5 -103t-142.5 -31q-63 0 -107 24l-61 -24h-13zM216 -280q18 129 -51 164l69 67l69 -68l-67 -163h-20z" />
    <glyph glyph-name="uni021A" unicode="&#x21a;" horiz-adv-x="658" 
d="M204 0v9l60 84v606h-94l-137 -146h-13l37 182h544l37 -182h-13l-137 146h-94v-606l60 -84v-9h-250zM313 -280q18 129 -51 164l69 67l69 -68l-67 -163h-20z" />
    <glyph glyph-name="uni021B" unicode="&#x21b;" horiz-adv-x="377" 
d="M228 -14q-68 0 -107.5 37t-39.5 101v302h-58v18l166 164h12v-148h134v-34h-134v-336q0 -59 65 -59q50 0 83 50l22 -15q-45 -80 -143 -80zM173 -280q18 129 -51 164l69 67l69 -68l-67 -163h-20z" />
    <glyph glyph-name="circumflex" unicode="&#x2c6;" horiz-adv-x="600" 
d="M60 541v7l118 131l118 -131v-7h-52l-66 52l-66 -52h-52z" />
    <glyph glyph-name="caron" unicode="&#x2c7;" horiz-adv-x="350" 
d="M165 535l-105 122v6h43l72 -43l74 43h41v-6l-105 -122h-20z" />
    <glyph glyph-name="breve" unicode="&#x2d8;" horiz-adv-x="334" 
d="M167 539q-48 0 -80.5 32.5t-32.5 80.5h50q0 -25 17.5 -41t45.5 -16t45.5 16t17.5 41h50q0 -48 -32.5 -80.5t-80.5 -32.5z" />
    <glyph glyph-name="dotaccent" unicode="&#x2d9;" horiz-adv-x="232" 
d="M116 538q-25 0 -43.5 18.5t-18.5 43.5t18.5 43.5t43.5 18.5t43.5 -18.5t18.5 -43.5t-18.5 -43.5t-43.5 -18.5z" />
    <glyph glyph-name="ring" unicode="&#x2da;" horiz-adv-x="216" 
d="M107 588q-33 0 -56.5 23.5t-23.5 56.5t23.5 56.5t56.5 23.5t56.5 -23.5t23.5 -56.5t-23.5 -56.5t-56.5 -23.5zM107 636q13 0 22.5 9t9.5 23t-9.5 23t-22.5 9t-22.5 -9t-9.5 -23t9.5 -23t22.5 -9z" />
    <glyph glyph-name="ogonek" unicode="&#x2db;" horiz-adv-x="327" 
d="M158 -188q-98 0 -98 79q0 36 33 72t68 54h57q-40 -17 -63 -47.5t-23 -67.5q0 -49 43 -49q34 0 67 34l25 -21q-44 -54 -109 -54z" />
    <glyph glyph-name="tilde" unicode="&#x2dc;" horiz-adv-x="600" 
d="M263 549q-20 0 -60 19t-60 19q-39 0 -48 -29l-35 15q8 31 32.5 51t50.5 20q25 0 62.5 -19t57.5 -19q19 0 34 8t19 20l33 -17q-11 -31 -33.5 -49.5t-52.5 -18.5z" />
    <glyph glyph-name="hungarumlaut" unicode="&#x2dd;" horiz-adv-x="495" 
d="M76 539l72 133h102v-6l-147 -127h-27zM203 539l71 133h103v-6l-147 -127h-27z" />
    <glyph glyph-name="gravecomb" unicode="&#x300;" 
d="M-90 539l-163 127v6h114l79 -133h-30z" />
    <glyph glyph-name="acutecomb" unicode="&#x301;" 
d="M-253 539l79 133h114v-6l-163 -127h-30z" />
    <glyph glyph-name="uni0302" unicode="&#x302;" 
d="M-296 541v7l118 131l118 -131v-7h-52l-66 52l-66 -52h-52z" />
    <glyph glyph-name="tildecomb" unicode="&#x303;" 
d="M-146 549q-20 0 -60 19t-60 19q-39 0 -48 -29l-35 15q8 31 32.5 51t50.5 20q25 0 62.5 -19t57.5 -19q19 0 34 8t19 20l33 -17q-11 -31 -33.5 -49.5t-52.5 -18.5z" />
    <glyph glyph-name="uni0304" unicode="&#x304;" 
d="M-297 572v40h234v-40h-234z" />
    <glyph glyph-name="uni0306" unicode="&#x306;" 
d="M-167 539q-48 0 -80.5 32.5t-32.5 80.5h50q0 -25 17.5 -41t45.5 -16t45.5 16t17.5 41h50q0 -48 -32.5 -80.5t-80.5 -32.5z" />
    <glyph glyph-name="uni0307" unicode="&#x307;" 
d="M-116 538q-25 0 -43.5 18.5t-18.5 43.5t18.5 43.5t43.5 18.5t43.5 -18.5t18.5 -43.5t-18.5 -43.5t-43.5 -18.5z" />
    <glyph glyph-name="uni0308" unicode="&#x308;" 
d="M-292 539l-63 64l63 65l62 -65zM-122 539l-63 64l63 65l62 -65z" />
    <glyph glyph-name="uni030A" unicode="&#x30a;" 
d="M-140 524q-33 0 -56.5 23.5t-23.5 56.5t23.5 56.5t56.5 23.5t56.5 -23.5t23.5 -56.5t-23.5 -56.5t-56.5 -23.5zM-140 572q14 0 23 9t9 23t-9 23t-23 9t-23 -9t-9 -23t9 -23t23 -9z" />
    <glyph glyph-name="uni030B" unicode="&#x30b;" 
d="M-345 539l72 133h102v-6l-147 -127h-27zM-218 539l71 133h103v-6l-147 -127h-27z" />
    <glyph glyph-name="uni030C" unicode="&#x30c;" 
d="M-165 523l-118 131v7h52l66 -52l66 52h52v-7z" />
    <glyph glyph-name="uni0312" unicode="&#x312;" 
d="M-104 768q-18 -129 51 -164l-69 -67l-69 68l67 163h20z" />
    <glyph glyph-name="uni0326" unicode="&#x326;" 
d="M-138 -280q18 129 -51 164l69 67l69 -68l-67 -163h-20z" />
    <glyph glyph-name="uni0327" unicode="&#x327;" 
d="M-190 -224q-32 0 -69 10v30q19 -7 42 -7q29 0 44.5 9.5t15.5 22.5q0 21 -24.5 38t-73.5 21v10l117 106h34l-54 -82q46 -11 69.5 -34t23.5 -50q0 -31 -32.5 -52.5t-92.5 -21.5z" />
    <glyph glyph-name="uni0328" unicode="&#x328;" 
d="M-169 -188q-98 0 -98 79q0 36 33 72t68 54h57q-40 -17 -63 -47.5t-23 -67.5q0 -49 43 -49q34 0 67 34l25 -21q-44 -54 -109 -54z" />
    <glyph glyph-name="uni0335" unicode="&#x335;" 
d="M-294 339v40h234v-40h-234z" />
    <glyph glyph-name="uni0336" unicode="&#x336;" 
d="M-528 334v40h468v-40h-468z" />
    <glyph glyph-name="uni0337" unicode="&#x337;" 
d="M-521 -35l392 531h58l-394 -531h-56z" />
    <glyph glyph-name="uni0338" unicode="&#x338;" 
d="M-714 -29l588 792h66l-594 -792h-60z" />
    <glyph glyph-name="Wgrave" unicode="&#x1e80;" horiz-adv-x="942" 
d="M529 814l-163 127v6h114l79 -133h-30zM295 -14l-229 659l-50 81v9h223v-9l-40 -81l149 -451l93 344l-63 188v9h199v-9l-26 -93l122 -445l151 457l-53 81v9h157v-9l-56 -81l-226 -659h-44l-135 476l-130 -476h-42z" />
    <glyph glyph-name="wgrave" unicode="&#x1e81;" horiz-adv-x="722" 
d="M419 539l-163 127v6h114l79 -133h-30zM216 -14l-166 392l-34 72v10h189v-10l-29 -69l99 -237l65 164l-60 142v10h187v-10l-29 -69l92 -241l101 246l-36 64v10h111v-10l-34 -69l-163 -395h-43l-104 271l-108 -271h-38z" />
    <glyph glyph-name="Wacute" unicode="&#x1e82;" horiz-adv-x="942" 
d="M385 814l79 133h114v-6l-163 -127h-30zM295 -14l-229 659l-50 81v9h223v-9l-40 -81l149 -451l93 344l-63 188v9h199v-9l-26 -93l122 -445l151 457l-53 81v9h157v-9l-56 -81l-226 -659h-44l-135 476l-130 -476h-42z" />
    <glyph glyph-name="wacute" unicode="&#x1e83;" horiz-adv-x="722" 
d="M275 539l79 133h114v-6l-163 -127h-30zM216 -14l-166 392l-34 72v10h189v-10l-29 -69l99 -237l65 164l-60 142v10h187v-10l-29 -69l92 -241l101 246l-36 64v10h111v-10l-34 -69l-163 -395h-43l-104 271l-108 -271h-38z" />
    <glyph glyph-name="Wdieresis" unicode="&#x1e84;" horiz-adv-x="942" 
d="M388 814l-63 64l63 65l62 -65zM558 814l-63 64l63 65l62 -65zM295 -14l-229 659l-50 81v9h223v-9l-40 -81l149 -451l93 344l-63 188v9h199v-9l-26 -93l122 -445l151 457l-53 81v9h157v-9l-56 -81l-226 -659h-44l-135 476l-130 -476h-42z" />
    <glyph glyph-name="wdieresis" unicode="&#x1e85;" horiz-adv-x="722" 
d="M278 539l-63 64l63 65l62 -65zM448 539l-63 64l63 65l62 -65zM216 -14l-166 392l-34 72v10h189v-10l-29 -69l99 -237l65 164l-60 142v10h187v-10l-29 -69l92 -241l101 246l-36 64v10h111v-10l-34 -69l-163 -395h-43l-104 271l-108 -271h-38z" />
    <glyph glyph-name="uni1EBC" unicode="&#x1ebc;" horiz-adv-x="671" 
d="M275 862q-39 0 -48 -29l-35 15q8 31 32.5 51t50.5 20q25 0 62.5 -19t57.5 -19q19 0 34 8t19 20l33 -17q-11 -31 -33.5 -49.5t-52.5 -18.5q-20 0 -60 19t-60 19zM544 156l101 -106q-34 -29 -87 -39.5t-184 -10.5h-317v10l57 82v550l-73 83v10h509l36 -161h-19l-139 125
h-184v-272h130l80 50h12v-163h-11l-81 73h-130v-349h95q82 0 129 27t76 91z" />
    <glyph glyph-name="uni1EBD" unicode="&#x1ebd;" horiz-adv-x="534" 
d="M210 587q-39 0 -48 -29l-35 15q8 31 32.5 51t50.5 20q25 0 62.5 -19t57.5 -19q19 0 34 8t19 20l33 -17q-11 -31 -33.5 -49.5t-52.5 -18.5q-20 0 -60 19t-60 19zM471 128l31 -12q-52 -130 -203 -130q-48 0 -92.5 15t-83 44.5t-61.5 79.5t-23 114q0 106 67 170.5t178 64.5
q99 0 157 -60t58 -158h-336q3 -94 50.5 -151t115.5 -57q48 0 86.5 22t55.5 58zM281 442q-54 0 -86 -41.5t-31 -110.5l225 15q1 63 -28 100t-80 37z" />
    <glyph glyph-name="uni1EBE" unicode="&#x1ebe;" horiz-adv-x="671" 
d="M443 1216l-163 -127h-30l79 133h114v-6zM336 868l-66 -52h-52v7l118 131l118 -131v-7h-52zM544 156l101 -106q-34 -29 -87 -39.5t-184 -10.5h-317v10l57 82v550l-73 83v10h509l36 -161h-19l-139 125h-184v-272h130l80 50h12v-163h-11l-81 73h-130v-349h95q82 0 129 27
t76 91z" />
    <glyph glyph-name="uni1ED0" unicode="&#x1ed0;" horiz-adv-x="886" 
d="M357 1089l79 133h114v-6l-163 -127h-30zM325 816v7l118 131l118 -131v-7h-52l-66 52l-66 -52h-52zM448 -14q-175 0 -288.5 105t-113.5 276q0 172 110 277t280 105q178 0 291 -105t113 -277q0 -169 -112.5 -275t-279.5 -106zM469 20q114 0 170.5 88.5t56.5 228.5
q0 158 -79 268t-197 110q-80 0 -133.5 -43.5t-75 -110.5t-21.5 -155q0 -164 79 -275t200 -111z" />
    <glyph glyph-name="Ygrave" unicode="&#x1ef2;" horiz-adv-x="592" 
d="M354 814l-163 127v6h114l79 -133h-30zM170 0v10l61 83v253l-219 380v9h249v-9l-54 -82l130 -229l137 229l-55 82v9h161v-9l-219 -361v-272l57 -83v-10h-248z" />
    <glyph glyph-name="ygrave" unicode="&#x1ef3;" horiz-adv-x="514" 
d="M321 539l-163 127v6h114l79 -133h-30zM147 -210v10l46 62l56 138l-243 450v10h215v-10l-44 -67l128 -253l104 252l-44 68v10h133v-10l-33 -66l-218 -522l38 -62v-10h-138z" />
    <glyph glyph-name="uni1EF8" unicode="&#x1ef8;" horiz-adv-x="592" 
d="M355 824q-20 0 -60 19t-60 19q-39 0 -48 -29l-35 15q8 31 32.5 51t50.5 20q25 0 62.5 -19t57.5 -19q19 0 34 8t19 20l33 -17q-11 -31 -33.5 -49.5t-52.5 -18.5zM170 0v10l61 83v253l-219 380v9h249v-9l-54 -82l130 -229l137 229l-55 82v9h161v-9l-219 -361v-272l57 -83
v-10h-248z" />
    <glyph glyph-name="uni1EF9" unicode="&#x1ef9;" horiz-adv-x="514" 
d="M322 549q-20 0 -60 19t-60 19q-39 0 -48 -29l-35 15q8 31 32.5 51t50.5 20q25 0 62.5 -19t57.5 -19q19 0 34 8t19 20l33 -17q-11 -31 -33.5 -49.5t-52.5 -18.5zM147 -210v10l46 62l56 138l-243 450v10h215v-10l-44 -67l128 -253l104 252l-44 68v10h133v-10l-33 -66
l-218 -522l38 -62v-10h-138z" />
    <glyph glyph-name="endash" unicode="&#x2013;" horiz-adv-x="610" 
d="M62 246v56h485v-56h-485z" />
    <glyph glyph-name="emdash" unicode="&#x2014;" horiz-adv-x="868" 
d="M63 246v56h741v-56h-741z" />
    <glyph glyph-name="quoteleft" unicode="&#x2018;" horiz-adv-x="212" 
d="M107 457l-80 85l78 206h23q-2 -19 -3.5 -31.5t-2 -35.5t3 -40.5t9.5 -37.5t19.5 -35.5t32.5 -26.5z" />
    <glyph glyph-name="quoteright" unicode="&#x2019;" horiz-adv-x="204" 
d="M80 474q2 19 3.5 31.5t2 35.5t-3 40.5t-9.5 37.5t-19.5 35.5t-32.5 26.5l80 84l80 -85l-78 -206h-23z" />
    <glyph glyph-name="quotesinglbase" unicode="&#x201a;" horiz-adv-x="213" 
d="M88 -155q2 19 3.5 31.5t2 35.5t-3 40.5t-9.5 37.5t-19.5 35.5t-32.5 26.5l80 84l80 -85l-78 -206h-23z" />
    <glyph glyph-name="quotedblleft" unicode="&#x201c;" horiz-adv-x="351" 
d="M94 457l-80 85l78 206h23q-2 -19 -3.5 -31.5t-2 -35.5t3 -40.5t9.5 -37.5t19.5 -35.5t32.5 -26.5zM266 457l-80 85l78 206h23q-2 -19 -3.5 -31.5t-2 -35.5t3 -40.5t9.5 -37.5t19.5 -35.5t32.5 -26.5z" />
    <glyph glyph-name="quotedblright" unicode="&#x201d;" horiz-adv-x="353" 
d="M70 457q2 19 3.5 31.5t2 35.5t-3 40.5t-9.5 37.5t-19.5 35.5t-32.5 26.5l80 84l80 -85l-78 -206h-23zM242 457q2 19 3.5 31.5t2 35.5t-3 40.5t-9.5 37.5t-19.5 35.5t-32.5 26.5l80 84l80 -85l-78 -206h-23z" />
    <glyph glyph-name="quotedblbase" unicode="&#x201e;" horiz-adv-x="351" 
d="M70 -155q2 19 3.5 31.5t2 35.5t-3 40.5t-9.5 37.5t-19.5 35.5t-32.5 26.5l80 84l80 -85l-78 -206h-23zM242 -155q2 19 3.5 31.5t2 35.5t-3 40.5t-9.5 37.5t-19.5 35.5t-32.5 26.5l80 84l80 -85l-78 -206h-23z" />
    <glyph glyph-name="bullet" unicode="&#x2022;" horiz-adv-x="277" 
d="M40 333l30 64l68 37l66 -37l33 -64l-33 -67l-66 -34l-68 34z" />
    <glyph glyph-name="ellipsis" unicode="&#x2026;" horiz-adv-x="744" 
d="M125 -34l-81 85l81 85l80 -85zM373 -34l-81 85l81 85l80 -85zM621 -34l-81 85l81 85l80 -85z" />
    <glyph glyph-name="perthousand" unicode="&#x2030;" horiz-adv-x="1042" 
d="M191 454q-50 0 -94.5 33t-44.5 104t44.5 104t94.5 33q52 0 96.5 -33t44.5 -104t-44.5 -104t-96.5 -33zM79 0l481 716h74l-481 -716h-74zM191 483q46 0 46 107q0 108 -46 108q-20 0 -32 -28t-11 -80q-1 -52 11 -79.5t32 -27.5zM531 -8q-50 0 -94.5 33t-44.5 104t44.5 104
t94.5 33q52 0 96.5 -33t44.5 -104t-44.5 -104t-96.5 -33zM865 -8q-50 0 -94.5 33t-44.5 104t44.5 104t94.5 33q52 0 96.5 -33t44.5 -104t-44.5 -104t-96.5 -33zM531 21q46 0 46 107q0 108 -46 108q-20 0 -32 -28t-11 -80q-1 -52 11 -79.5t32 -27.5zM865 21q46 0 46 107
q0 108 -46 108q-20 0 -32 -28t-11 -80q-1 -52 11 -79.5t32 -27.5z" />
    <glyph glyph-name="Euro" unicode="&#x20ac;" horiz-adv-x="678" 
d="M437 40q114 0 176 92l28 -11q-75 -136 -223 -136q-131 0 -222 77t-117 208h-54l13 50h34q-2 32 -2 48q0 18 1 27h-47l14 52h38q20 139 107.5 222t214.5 83q79 0 147.5 -28.5t106.5 -76.5l-101 -106q-2 28 -10.5 57t-25.5 59.5t-48 49.5t-72 19q-55 0 -94.5 -28t-60 -74
t-29.5 -88.5t-12 -88.5h280l-14 -52h-267q2 -51 5 -75h238l-18 -50h-212q25 -116 87.5 -173t138.5 -57z" />
    <glyph glyph-name="uni2116" unicode="&#x2116;" horiz-adv-x="1140" 
d="M583 -6l-431 593v-494l57 -83v-10h-169v9l62 84v546l-57 86v10h169l337 -462l14 -60v430l-59 82v10h167v-10l-58 -82v-649h-32zM886 247q-33 0 -67.5 11t-68.5 34t-56 67t-22 103t22 103t56 67t68.5 34t67.5 11q35 0 70.5 -11t70 -34t56.5 -67t22 -103t-22 -103
t-56.5 -67t-70 -34t-70.5 -11zM886 279q46 0 72.5 46.5t26.5 135.5q0 91 -26.5 138t-72.5 47q-42 0 -68 -48t-25 -137q-1 -89 25 -135.5t68 -46.5zM675 125v52h423v-52h-423z" />
    <glyph glyph-name="arrowleft" unicode="&#x2190;" horiz-adv-x="1078" 
d="M1038 302v-56h-817l88 -140l-22 -15q-61 73 -118 107t-129 41v70q72 7 129 41t118 107l22 -15l-88 -140h817z" />
    <glyph glyph-name="arrowup" unicode="&#x2191;" horiz-adv-x="506" 
d="M436 502l-15 -22l-140 96v-589h-56v589l-140 -96l-15 22q76 61 111 118.5t42 128.5h61q7 -72 42 -129t110 -118z" />
    <glyph glyph-name="arrowright" unicode="&#x2192;" horiz-adv-x="1078" 
d="M791 457q61 -73 118 -107t129 -41v-70q-72 -7 -129 -41t-118 -107l-22 15l88 140h-817v56h817l-88 140z" />
    <glyph glyph-name="arrowdown" unicode="&#x2193;" horiz-adv-x="506" 
d="M421 256l15 -22q-75 -61 -110 -118t-42 -129h-61q-7 71 -42 128.5t-111 118.5l15 22l140 -96v589h56v-589z" />
    <glyph glyph-name="arrowboth" unicode="&#x2194;" horiz-adv-x="1078" 
d="M793 457q61 -73 118 -107t129 -41v-70q-72 -7 -129 -41t-118 -107l-22 15l88 140h-638l88 -140l-22 -15q-61 73 -118 107t-129 41v70q72 7 129 41t118 107l22 -15l-88 -140h638l-88 140z" />
    <glyph glyph-name="arrowupdn" unicode="&#x2195;" horiz-adv-x="506" 
d="M281 159l140 96l15 -22q-75 -61 -110 -118t-42 -129h-61q-7 71 -42 128.5t-111 118.5l15 22l140 -96v417l-140 -96l-15 22q76 61 111 118.5t42 128.5h61q7 -72 42 -129t110 -118l-15 -22l-140 96v-417z" />
    <glyph glyph-name="approxequal" unicode="&#x2248;" horiz-adv-x="590" 
d="M376 238q-31 0 -57 11.5t-41 25t-37 25t-46 11.5q-28 0 -46.5 -16.5t-22.5 -32.5l-4 -16h-52q0 6 1.5 15.5t9.5 34.5t22 44.5t43 35t68 15.5q40 0 70 -18.5t56 -36.5t56 -18q28 0 46.5 16t22.5 32l4 17h51q0 -6 -1.5 -15.5t-9.5 -34.5t-22 -44.5t-43 -35t-68 -15.5z
M376 73q-39 0 -69.5 18.5t-56.5 36.5t-55 18q-18 0 -32 -6.5t-21 -16t-12 -19.5t-6 -16l-2 -7h-52q0 6 1.5 15.5t9.5 34.5t22 44.5t43 35t68 15.5q32 0 58 -11.5t41 -25t37 -25t46 -11.5q28 0 46.5 16.5t22.5 32.5l4 16h51q0 -6 -1.5 -15.5t-9.5 -34.5t-22 -44.5t-43 -35
t-68 -15.5z" />
    <glyph glyph-name="lessequal" unicode="&#x2264;" horiz-adv-x="372" 
d="M342 133l-318 246v19l318 247v-102l-154 -155l154 -147v-108zM24 0v74h318v-74h-318z" />
    <glyph glyph-name="greaterequal" unicode="&#x2265;" horiz-adv-x="372" 
d="M24 133v108l154 147l-154 155v102l318 -247v-19zM24 0v74h318v-74h-318z" />
    <glyph glyph-name="o.alt" horiz-adv-x="600" 
d="M300 474q66 0 122.5 -23.5t96 -80t39.5 -137.5q0 -124 -76 -185.5t-182 -61.5q-105 0 -181.5 61.5t-76.5 185.5q0 63 22.5 111t60.5 75.5t82 41t93 13.5zM313 17q54 0 87.5 49.5t33.5 144.5t-37 161q-24 33 -62 33q-31 0 -48.5 -19t-17.5 -51q0 -41 31 -82l-77 -50
q-26 43 -26 91q0 57 32 99t90 42q17 0 39 -5q-23 13 -59 13q-60 0 -96.5 -47.5t-36.5 -137.5q0 -106 40 -173.5t107 -67.5z" />
    <glyph glyph-name="O.alt" horiz-adv-x="886" 
d="M442 749q173 0 285.5 -105t112.5 -277q0 -169 -112.5 -275t-279.5 -106q-175 0 -288.5 105t-113.5 276q0 173 111 277.5t285 104.5zM469 18q114 0 170.5 89t56.5 230q0 131 -56 235q-59 101 -167 101q-65 0 -99 -37t-34 -100q0 -77 59 -138l-103 -89q-55 86 -55 179
q0 91 51 153t148 62q65 0 127 -27q-46 42 -138 42q-110 0 -174.5 -84.5t-64.5 -227.5q0 -164 79 -276t200 -112z" />
    <glyph glyph-name="zero.zero" horiz-adv-x="750" 
d="M383 749q101 0 174.5 -57t108 -144.5t34.5 -192.5q0 -98 -37 -180.5t-113 -136t-178 -53.5q-79 0 -141.5 32.5t-101.5 87.5t-59 124.5t-20 146.5q0 99 36.5 182t113.5 137t183 54zM365 717q-79 0 -125.5 -81t-46.5 -219q0 -183 45 -283l238 528q-44 55 -111 55zM382 18
q84 0 129.5 80.5t45.5 228.5q0 190 -52 292l-241 -534q47 -67 118 -67z" />
    <glyph glyph-name="a.alt" horiz-adv-x="611" 
d="M264 -14q-97 0 -161.5 70t-64.5 176q0 104 69 173t173 69q47 0 77 -10.5t68 -36.5l87 49h25v-390l46 -75v-11h-168v39q-59 -53 -151 -53zM343 304q41 0 73 32q-3 38 -26 62t-54 24q-28 0 -44 -15t-16 -40q0 -28 18.5 -45t48.5 -18zM316 49q28 0 52 10t33.5 18.5
t14.5 15.5v175q-37 -21 -78 -21q-59 0 -95 30.5t-36 78.5q0 27 11 47q-56 -44 -56 -151q0 -91 42.5 -147t111.5 -56z" />
    <glyph glyph-name="a.ss01" horiz-adv-x="619" 
d="M537 86l46 -75v-11h-168v39q-59 -53 -147 -53q-100 0 -165 70t-65 176q0 104 69 173t173 69q47 0 76 -10.5t69 -36.5l87 49h25v-390zM316 49q63 0 100 43v283q-40 46 -107 46q-65 0 -103.5 -48t-38.5 -126q0 -89 41 -143.5t108 -54.5z" />
    <glyph glyph-name="i.loclTRK" horiz-adv-x="304" 
d="M154 538q-25 0 -43.5 18.5t-18.5 43.5t18.5 43.5t43.5 18.5t43.5 -18.5t18.5 -43.5t-18.5 -43.5t-43.5 -18.5zM45 0v11l53 75v193q0 94 -52 129l156 59h16v-381l52 -75v-11h-225z" />
    </font>
</defs>
</svg>
