<?xml version="1.0" standalone="no"?>
<!DOCTYPE svg PUBLIC "-//W3C//DTD SVG 20010904//EN"
 "http://www.w3.org/TR/2001/REC-SVG-20010904/DTD/svg10.dtd">
<svg version="1.0" xmlns="http://www.w3.org/2000/svg"
 width="800.000000pt" height="800.000000pt" viewBox="0 0 800.000000 800.000000"
 preserveAspectRatio="xMidYMid meet">
<metadata>
Created by potrace 1.11, written by Peter Selinger 2001-2013
</metadata>
<g transform="translate(0.000000,800.000000) scale(0.100000,-0.100000)"
fill="#000000" stroke="none">
<path d="M3983 7837 c-12 -34 -32 -93 -47 -132 -14 -38 -56 -157 -93 -262
l-69 -193 -64 123 c-35 67 -88 167 -117 222 -29 55 -72 137 -95 182 -44 85
-50 87 -62 20 -2 -12 -16 -80 -30 -152 -33 -164 -35 -175 -41 -205 -3 -14 -15
-77 -28 -140 l-23 -114 -41 54 c-22 30 -113 156 -201 279 -89 123 -162 222
-163 220 -6 -30 -8 -60 -14 -172 -4 -73 -8 -157 -10 -187 -2 -30 -7 -113 -10
-185 -4 -71 -8 -131 -10 -133 -1 -1 -43 39 -92 90 -313 320 -394 402 -390 393
3 -5 8 -53 11 -105 4 -52 9 -111 11 -130 2 -19 6 -75 10 -124 4 -49 8 -97 10
-106 7 -36 16 -210 11 -210 -3 0 -14 7 -23 15 -94 78 -509 391 -511 385 -2 -4
6 -48 18 -97 30 -124 44 -186 85 -363 20 -85 38 -163 41 -172 3 -10 1 -18 -4
-18 -5 0 -139 74 -298 164 -159 90 -290 163 -292 162 -1 -2 6 -25 17 -52 11
-27 22 -56 25 -64 3 -8 50 -127 104 -265 54 -137 98 -252 96 -253 -2 -3 -316
117 -593 228 -33 13 -50 16 -44 8 6 -7 31 -49 55 -93 25 -44 97 -173 161 -288
65 -114 117 -210 117 -213 0 -3 -4 -3 -8 0 -5 3 -19 7 -33 9 -13 3 -44 10 -69
17 -25 7 -52 13 -60 15 -19 4 -249 58 -389 91 -57 14 -105 23 -106 22 -1 -2
78 -106 176 -233 98 -126 192 -249 210 -273 l31 -43 -29 5 c-15 3 -66 8 -113
11 -47 4 -101 8 -120 10 -19 3 -66 7 -105 10 -38 3 -86 7 -105 9 -19 3 -75 8
-125 11 l-90 6 245 -240 c176 -173 239 -241 225 -241 -11 -1 -36 -3 -56 -5
-19 -1 -93 -6 -165 -9 -71 -4 -165 -9 -209 -12 -44 -3 -111 -7 -150 -9 -38 -2
-74 -4 -79 -4 -5 -1 22 -24 60 -51 112 -82 221 -161 358 -260 141 -103 139
-97 46 -115 -41 -8 -474 -95 -491 -99 -9 -3 -34 -7 -55 -10 -21 -4 -39 -8 -41
-10 -2 -2 50 -30 114 -64 65 -33 156 -81 203 -106 47 -25 131 -69 187 -98 56
-29 101 -54 99 -55 -3 -3 -146 -55 -311 -113 -281 -98 -325 -115 -325 -120 0
-4 21 -14 48 -23 26 -8 106 -36 177 -62 72 -26 190 -68 262 -93 73 -26 133
-51 134 -56 0 -5 -43 -33 -98 -61 -54 -28 -179 -93 -278 -145 -229 -119 -225
-116 -183 -123 45 -8 621 -126 632 -130 5 -2 -115 -93 -267 -202 -151 -110
-273 -202 -271 -204 2 -2 34 -5 71 -7 67 -3 166 -8 352 -19 185 -11 226 -14
241 -15 8 0 -97 -111 -235 -246 -137 -135 -245 -243 -240 -241 6 3 46 8 90 12
44 3 95 8 113 11 19 2 74 7 123 10 49 3 98 7 109 9 12 2 60 7 108 10 48 3 99
8 115 9 19 2 24 0 18 -8 -4 -6 -50 -65 -101 -131 -51 -66 -104 -135 -119 -154
-14 -19 -44 -57 -66 -85 -54 -68 -126 -166 -122 -166 6 0 310 70 367 85 30 8
66 16 80 18 14 3 65 14 113 26 49 12 92 21 97 21 5 0 -7 -28 -27 -62 -19 -35
-44 -78 -54 -96 -11 -18 -69 -122 -130 -230 -62 -108 -113 -200 -115 -204 -3
-4 24 5 58 18 35 14 104 40 153 59 50 19 164 64 255 99 91 36 166 63 168 61 2
-2 -51 -143 -118 -315 -67 -171 -120 -313 -118 -314 1 -2 133 70 292 160 269
153 315 176 302 156 -4 -6 -64 -256 -80 -332 -3 -14 -12 -54 -21 -90 -9 -36
-23 -94 -31 -130 -9 -36 -18 -74 -21 -85 -5 -18 -5 -19 21 -1 15 9 35 24 44
31 9 8 89 69 177 136 88 68 162 126 165 129 6 7 111 84 128 94 9 5 11 -1 8
-26 -3 -18 -8 -69 -11 -113 -3 -44 -8 -98 -10 -120 -3 -22 -7 -71 -10 -110 -7
-79 -12 -138 -20 -240 l-6 -70 108 112 c239 246 364 373 371 373 4 0 8 -17 8
-38 1 -38 7 -163 28 -536 3 -48 7 -90 9 -93 3 -2 67 82 144 187 224 311 254
352 259 347 4 -4 29 -114 40 -177 3 -14 14 -70 25 -125 12 -55 22 -107 24
-115 33 -168 49 -239 54 -235 7 7 75 133 116 213 123 243 203 382 210 365 4
-10 29 -81 57 -158 27 -77 72 -203 100 -280 28 -77 53 -150 55 -162 8 -35 18
-28 35 25 9 26 37 105 63 177 25 72 62 175 81 230 19 55 39 109 43 120 5 11
13 30 17 43 10 25 5 32 144 -233 35 -66 80 -151 100 -190 21 -38 48 -90 60
-115 l23 -45 9 30 c4 17 24 109 44 205 19 96 37 184 40 195 2 11 14 68 26 128
12 59 24 107 28 107 3 -1 37 -46 75 -101 39 -55 78 -110 87 -122 10 -12 65
-88 123 -170 59 -81 109 -147 113 -147 4 0 7 17 8 38 0 20 4 89 7 152 4 63 10
165 13 225 3 61 7 128 9 150 2 22 4 57 4 78 l1 38 133 -137 c72 -75 181 -186
240 -248 l108 -111 -6 85 c-4 47 -8 103 -10 125 -4 55 -15 191 -20 240 -2 22
-7 74 -10 115 -3 41 -8 86 -11 98 -3 17 -1 22 8 16 7 -4 128 -96 268 -204 140
-108 260 -200 267 -203 7 -5 7 8 -3 40 -8 26 -16 57 -18 68 -2 11 -11 49 -19
85 -24 99 -69 293 -72 311 -2 8 -11 46 -20 83 -9 37 -15 69 -13 71 4 4 103
-51 333 -182 44 -26 105 -60 135 -76 30 -17 69 -39 85 -49 17 -10 33 -18 37
-18 3 0 -9 39 -29 87 -19 49 -73 187 -120 308 -47 121 -87 225 -90 232 -3 7
39 -5 94 -26 54 -21 181 -71 283 -111 102 -39 200 -79 218 -87 19 -8 35 -13
38 -11 2 2 -28 60 -67 129 -212 373 -261 461 -256 466 2 1 27 -4 57 -12 30 -8
66 -16 80 -19 14 -2 136 -31 273 -64 136 -32 247 -57 247 -54 0 5 -139 191
-150 202 -3 3 -28 34 -55 70 -27 36 -52 67 -55 70 -4 4 -99 128 -139 183 -13
19 -11 19 65 13 43 -4 97 -9 119 -11 22 -3 72 -7 110 -10 39 -3 88 -8 110 -10
41 -5 147 -14 223 -20 37 -2 58 8 33 17 -14 5 -471 451 -471 460 0 4 10 7 23
6 19 -1 80 2 327 17 36 3 124 7 195 11 72 3 131 7 133 8 1 2 -30 25 -69 52
-39 27 -76 54 -82 59 -15 13 -112 84 -143 105 -97 65 -253 185 -247 191 7 5
114 28 253 54 122 23 386 80 392 84 7 6 -19 21 -297 166 -246 128 -285 150
-285 156 0 3 84 36 188 72 103 37 225 80 272 97 47 17 92 33 100 35 24 5 70
24 70 28 0 5 -23 13 -230 87 -80 28 -154 55 -165 60 -11 5 -70 26 -131 47 -91
31 -109 40 -95 49 24 16 230 125 533 282 49 25 55 30 35 35 -55 12 -225 48
-250 52 -15 3 -60 12 -100 21 -107 23 -105 23 -200 40 -48 9 -89 19 -91 23 -2
3 119 96 270 205 151 108 274 199 274 200 0 1 -10 2 -22 3 -41 1 -272 14 -323
18 -27 2 -113 7 -190 11 -77 3 -142 8 -144 10 -3 3 200 203 412 407 77 74 78
75 45 72 -18 -2 -67 -6 -108 -9 -41 -3 -93 -8 -115 -11 -43 -4 -158 -14 -240
-20 -27 -2 -83 -7 -124 -10 l-75 -6 35 43 c20 24 73 93 120 153 96 126 82 108
189 243 l82 104 -34 -5 c-18 -2 -112 -24 -208 -47 -96 -23 -186 -44 -200 -47
-14 -2 -59 -12 -100 -22 -41 -11 -87 -22 -102 -25 l-27 -6 32 60 c18 34 37 69
42 78 11 19 117 207 148 262 11 19 40 70 64 113 25 43 44 80 42 82 -3 3 -245
-88 -304 -114 -11 -5 -58 -23 -105 -41 -47 -18 -111 -43 -143 -56 -65 -27 -95
-31 -80 -11 5 6 19 37 30 67 23 57 142 365 169 435 9 22 23 55 30 74 8 18 13
35 11 38 -3 2 -44 -19 -92 -47 -48 -27 -89 -50 -90 -50 -1 0 -93 -52 -205
-115 -112 -63 -205 -114 -206 -112 -1 1 13 65 32 142 18 77 36 151 38 165 2
14 22 99 44 190 22 91 39 166 38 167 -1 2 -321 -243 -366 -280 -8 -7 -31 -23
-50 -37 -34 -24 -59 -44 -84 -65 -49 -43 -48 -44 -42 20 6 61 13 148 21 241 2
28 7 78 10 110 3 32 8 84 10 114 3 30 7 81 11 112 l5 57 -135 -137 c-74 -75
-182 -186 -240 -247 -58 -60 -107 -107 -107 -105 -3 11 -14 188 -24 375 -9
170 -17 300 -19 303 -2 1 -29 -35 -62 -80 -67 -94 -149 -206 -167 -228 -7 -8
-21 -29 -31 -45 -11 -17 -24 -35 -30 -42 -6 -6 -33 -43 -61 -82 -51 -74 -57
-75 -69 -11 -3 19 -8 44 -10 55 -3 11 -28 138 -57 283 -29 144 -55 262 -59
262 -3 0 -20 -28 -38 -62 -18 -35 -73 -139 -122 -233 -49 -93 -104 -198 -122
-232 -18 -35 -35 -63 -38 -63 -3 0 -18 35 -32 78 -63 181 -197 554 -201 558
-2 2 -13 -25 -24 -59z"/>
</g>
</svg>
